<?xml version="1.0" encoding="UTF-8"?>
<svg width="87px" height="54px" viewBox="0 0 87 54" version="1.1" xmlns="http://www.w3.org/2000/svg" xmlns:xlink="http://www.w3.org/1999/xlink">
    <title>易卜</title>
    <g id="website" stroke="none" stroke-width="1" fill="none" fill-rule="evenodd">
        <g id="Medium" transform="translate(-678.000000, -501.000000)" fill="#000000" fill-rule="nonzero">
            <g id="易卜" transform="translate(678.927059, 501.880000)">
                <path d="M27.6969412,0.448 C27.8249412,0.234666667 27.9422745,0.106666667 28.0489412,0.064 C28.1556078,0.0213333333 28.3582745,-5.68434189e-14 28.6569412,-5.68434189e-14 L29.2969412,-5.68434189e-14 L29.6169412,0.64 C29.8302745,1.06666667 30.0222745,1.28 30.1929412,1.28 C30.4062745,1.36533333 30.5129412,1.46133333 30.5129412,1.568 C30.5129412,1.67466667 30.7796078,2.00533333 31.3129412,2.56 C31.8462745,3.11466667 32.1662745,3.392 32.2729412,3.392 C32.3796078,3.392 32.4329412,3.456 32.4329412,3.584 C32.4329412,3.712 32.5182745,3.84 32.6889412,3.968 C32.8596078,4.096 32.8809412,4.24533333 32.7529412,4.416 C32.6249412,4.58666667 32.5609412,4.75733333 32.5609412,4.928 C32.5609412,5.09866667 32.4542745,5.20533333 32.2409412,5.248 C32.0276078,5.29066667 31.9209412,5.376 31.9209412,5.504 C31.9209412,5.58933333 31.7929412,5.78133333 31.5369412,6.08 C31.2809412,6.37866667 31.1529412,6.86933333 31.1529412,7.552 C31.1529412,8.23466667 31.0889412,8.68266667 30.9609412,8.896 C30.6622745,9.49333333 30.5769412,10.0053333 30.7049412,10.432 C30.7902745,10.6453333 30.7902745,10.9866667 30.7049412,11.456 C30.6196078,11.9253333 30.5769412,12.7786667 30.5769412,14.016 C30.6196078,16.064 30.4916078,17.3866667 30.1929412,17.984 C30.0649412,18.1973333 30.0009412,18.6666667 30.0009412,19.392 C30.0009412,19.9893333 29.9582745,20.6506667 29.8729412,21.376 C29.8302745,22.0586667 29.7022745,22.464 29.4889412,22.592 C29.3609412,22.72 29.2009412,22.9653333 29.0089412,23.328 C28.8169412,23.6906667 28.7209412,23.9573333 28.7209412,24.128 C28.7209412,24.6826667 28.4436078,25.024 27.8889412,25.152 C27.2062745,25.3226667 26.6729412,25.2373333 26.2889412,24.896 C26.0329412,24.6826667 25.9049412,24.4053333 25.9049412,24.064 C25.9049412,23.7226667 25.8409412,23.488 25.7129412,23.36 C25.6276078,23.2746667 25.5742745,22.944 25.5529412,22.368 C25.5316078,21.792 25.5636078,21.4826667 25.6489412,21.44 C25.7769412,21.3546667 25.8302745,21.2373333 25.8089412,21.088 C25.7876078,20.9386667 25.7129412,20.8426667 25.5849412,20.8 C25.4569412,20.7573333 25.3929412,20.5653333 25.3929412,20.224 C25.3929412,19.8826667 25.3502745,19.4773333 25.2649412,19.008 C25.1796078,18.4533333 25.2009412,17.9413333 25.3289412,17.472 C25.4569412,16.96 25.5209412,16.4373333 25.5209412,15.904 C25.5209412,15.3706667 25.5849412,14.9333333 25.7129412,14.592 C25.8409412,14.208 25.9049412,12.5653333 25.9049412,9.664 L25.8409412,5.248 L24.9449412,5.248 C24.3049412,5.20533333 23.8142745,5.29066667 23.4729412,5.504 C23.1742745,5.76 22.6622745,5.84533333 21.9369412,5.76 C21.3822745,5.71733333 20.7422745,5.728 20.0169412,5.792 C19.2916078,5.856 18.8649412,5.952 18.7369412,6.08 C18.6516078,6.16533333 18.3742745,6.208 17.9049412,6.208 C17.5636078,6.208 17.2009412,6.25066667 16.8169412,6.336 C16.4329412,6.42133333 16.2409412,6.50666667 16.2409412,6.592 C16.2409412,6.63466667 16.2409412,7.44533333 16.2409412,9.024 C16.1982745,10.6453333 16.2409412,11.4986667 16.3689412,11.584 C16.4969412,11.712 17.0302745,11.744 17.9689412,11.68 C18.9076078,11.616 19.5262745,11.52 19.8249412,11.392 C20.1236078,11.2213333 20.5502745,11.136 21.1049412,11.136 C22.0436078,11.0933333 22.5556078,10.9226667 22.6409412,10.624 C22.7262745,10.496 22.9182745,10.432 23.2169412,10.432 C23.5156078,10.432 23.7502745,10.56 23.9209412,10.816 C24.0916078,11.072 24.1556078,11.3706667 24.1129412,11.712 C24.0276078,11.968 23.8676078,12.2133333 23.6329412,12.448 C23.3982745,12.6826667 23.1529412,12.8213333 22.8969412,12.864 C22.6836078,12.9066667 21.5956078,12.9493333 19.6329412,12.992 L16.6889412,13.056 L16.3689412,13.44 C16.1556078,13.696 16.0702745,13.952 16.1129412,14.208 C16.1556078,14.464 16.0916078,14.784 15.9209412,15.168 C15.6649412,15.808 15.7289412,16.576 16.1129412,17.472 C16.2409412,17.856 16.4329412,18.0693333 16.6889412,18.112 C16.9876078,18.1546667 18.1609412,18.1546667 20.2089412,18.112 C22.2569412,18.0266667 23.3449412,17.92 23.4729412,17.792 C23.5582745,17.664 23.7609412,17.632 24.0809412,17.696 C24.4009412,17.76 24.6036078,17.8986667 24.6889412,18.112 C24.7742745,18.3253333 24.7529412,18.4746667 24.6249412,18.56 C24.4969412,18.6453333 24.1769412,18.7306667 23.6649412,18.816 C23.0676078,18.8586667 22.6622745,18.9653333 22.4489412,19.136 C22.1929412,19.3066667 21.4676078,19.392 20.2729412,19.392 C19.0782745,19.4346667 18.4382745,19.4773333 18.3529412,19.52 C18.2249412,19.5626667 18.1609412,19.8613333 18.1609412,20.416 C18.1609412,21.0133333 18.2462745,21.3973333 18.4169412,21.568 C18.5449412,21.696 18.6942745,21.952 18.8649412,22.336 C19.0356078,22.72 19.1529412,23.04 19.2169412,23.296 C19.2809412,23.552 19.2916078,23.7013333 19.2489412,23.744 C19.1636078,23.744 19.0356078,23.872 18.8649412,24.128 C18.6942745,24.384 18.5449412,24.512 18.4169412,24.512 C18.2889412,24.512 18.0329412,24.7253333 17.6489412,25.152 C17.2222745,25.536 17.0302745,25.8133333 17.0729412,25.984 C17.1156078,26.1973333 17.2649412,26.3253333 17.5209412,26.368 C17.6916078,26.4106667 17.9049412,26.4746667 18.1609412,26.56 C18.5022745,26.688 19.7822745,26.7093333 22.0009412,26.624 C22.5129412,26.5813333 22.9502745,26.56 23.3129412,26.56 C23.6756078,26.56 23.9529412,26.5706667 24.1449412,26.592 C24.3369412,26.6133333 24.4649412,26.656 24.5289412,26.72 C24.5929412,26.784 24.6249412,26.8586667 24.6249412,26.944 C24.5822745,27.072 24.4862745,27.1466667 24.3369412,27.168 C24.1876078,27.1893333 23.9636078,27.3493333 23.6649412,27.648 C23.2809412,27.9893333 22.7796078,28.2346667 22.1609412,28.384 C21.5422745,28.5333333 21.0622745,28.5226667 20.7209412,28.352 C20.5929412,28.2666667 20.3582745,28.2773333 20.0169412,28.384 C19.6756078,28.4906667 19.5262745,28.608 19.5689412,28.736 C19.6116078,28.864 19.7182745,28.992 19.8889412,29.12 C20.1022745,29.2906667 20.2089412,29.4186667 20.2089412,29.504 C20.2089412,29.5893333 20.2942745,29.7386667 20.4649412,29.952 C20.5502745,30.08 20.6142745,30.24 20.6569412,30.432 C20.6996078,30.624 20.7209412,30.784 20.7209412,30.912 C20.7209412,31.04 20.6782745,31.104 20.5929412,31.104 C20.4649412,31.104 20.3262745,31.2106667 20.1769412,31.424 C20.0276078,31.6373333 19.8889412,31.744 19.7609412,31.744 C19.6329412,31.744 19.5476078,31.8506667 19.5049412,32.064 C19.4622745,32.192 19.0782745,32.6186667 18.3529412,33.344 C17.6276078,34.0693333 17.2222745,34.432 17.1369412,34.432 C17.0516078,34.432 17.0089412,34.496 17.0089412,34.624 C17.0089412,34.752 16.6249412,35.2 15.8569412,35.968 C15.0889412,36.736 14.6622745,37.12 14.5769412,37.12 C14.4489412,37.12 14.3636078,37.2053333 14.3209412,37.376 C14.2782745,37.5466667 14.1716078,37.632 14.0009412,37.632 C13.8302745,37.632 13.6916078,37.7173333 13.5849412,37.888 C13.4782745,38.0586667 13.3716078,38.144 13.2649412,38.144 C13.1582745,38.144 13.0836078,38.24 13.0409412,38.432 C12.9982745,38.624 12.7956078,38.784 12.4329412,38.912 C12.0702745,39.04 11.8462745,39.264 11.7609412,39.584 C11.6756078,39.904 11.6116078,40.064 11.5689412,40.064 C11.4836078,40.064 11.2809412,40.224 10.9609412,40.544 C10.6409412,40.864 10.4596078,41.088 10.4169412,41.216 C10.3316078,41.344 10.0969412,41.4293333 9.71294118,41.472 C9.32894118,41.5573333 9.13694118,41.6213333 9.13694118,41.664 C9.13694118,41.792 8.66760784,42.2826667 7.72894118,43.136 C7.47294118,43.3493333 7.21694118,43.4773333 6.96094118,43.52 C6.74760784,43.6053333 6.61960784,43.712 6.57694118,43.84 C6.53427451,44.0106667 6.43827451,44.096 6.28894118,44.096 C6.13960784,44.096 5.95827451,44.2026667 5.74494118,44.416 C5.53160784,44.672 5.16894118,44.928 4.65694118,45.184 C4.18760784,45.3973333 3.93160784,45.5893333 3.88894118,45.76 C3.84627451,45.9306667 3.67560784,46.0373333 3.37694118,46.08 C3.07827451,46.1226667 2.84360784,46.2506667 2.67294118,46.464 C2.50227451,46.6773333 2.11827451,46.7626667 1.52094118,46.72 L0.688941176,46.72 L0.688941176,46.08 C0.688941176,45.6533333 0.77427451,45.4293333 0.944941176,45.408 C1.11560784,45.3866667 1.36094118,45.248 1.68094118,44.992 C2.00094118,44.736 2.22494118,44.608 2.35294118,44.608 C2.48094118,44.608 2.58760784,44.5226667 2.67294118,44.352 C2.75827451,44.1813333 2.86494118,44.096 2.99294118,44.096 C3.12094118,44.096 3.39827451,43.8826667 3.82494118,43.456 C4.29427451,43.0293333 4.64627451,42.7946667 4.88094118,42.752 C5.11560784,42.7093333 5.23294118,42.6453333 5.23294118,42.56 C5.23294118,42.4746667 5.37160784,42.2933333 5.64894118,42.016 C5.92627451,41.7386667 6.12894118,41.5786667 6.25694118,41.536 C6.42760784,41.4933333 6.53427451,41.3866667 6.57694118,41.216 C6.61960784,41.088 6.77960784,40.8853333 7.05694118,40.608 C7.33427451,40.3306667 7.53694118,40.1706667 7.66494118,40.128 C7.79294118,40.0426667 7.85694118,39.968 7.85694118,39.904 C7.85694118,39.84 8.04894118,39.7226667 8.43294118,39.552 C8.81694118,39.424 9.00894118,39.296 9.00894118,39.168 C9.00894118,39.04 9.11560784,38.944 9.32894118,38.88 C9.54227451,38.816 9.70227451,38.688 9.80894118,38.496 C9.91560784,38.304 10.0542745,38.112 10.2249412,37.92 C10.3956078,37.728 10.5236078,37.632 10.6089412,37.632 C10.6942745,37.632 10.8542745,37.5466667 11.0889412,37.376 C11.3236078,37.2053333 11.5689412,37.12 11.8249412,37.12 C12.0809412,37.12 12.2516078,36.992 12.3369412,36.736 C12.4222745,36.48 12.5289412,36.352 12.6569412,36.352 C12.7849412,36.352 12.8916078,36.224 12.9769412,35.968 C13.0622745,35.712 13.1476078,35.584 13.2329412,35.584 C13.3182745,35.584 13.5102745,35.4346667 13.8089412,35.136 C14.1076078,34.8373333 14.2569412,34.5493333 14.2569412,34.272 C14.2569412,33.9946667 14.2996078,33.8026667 14.3849412,33.696 C14.4702745,33.5893333 14.6836078,33.4506667 15.0249412,33.28 C15.3662745,33.152 15.5796078,32.992 15.6649412,32.8 C15.7502745,32.608 15.7502745,32.2773333 15.6649412,31.808 C15.6222745,31.424 15.6862745,31.2106667 15.8569412,31.168 C15.9849412,31.1253333 16.1982745,30.9546667 16.4969412,30.656 C16.7529412,30.4 16.8809412,30.1226667 16.8809412,29.824 C16.8809412,29.2693333 16.7742745,28.992 16.5609412,28.992 C16.4756078,28.992 16.3796078,28.928 16.2729412,28.8 C16.1662745,28.672 15.5796078,28.608 14.5129412,28.608 C13.6596078,28.608 13.1156078,28.64 12.8809412,28.704 C12.6462745,28.768 12.3156078,29.0133333 11.8889412,29.44 C11.6756078,29.6533333 11.5262745,29.76 11.4409412,29.76 C11.3129412,29.76 11.1316078,29.888 10.8969412,30.144 C10.6622745,30.4 10.5236078,30.6133333 10.4809412,30.784 C10.4382745,30.9973333 10.3209412,31.104 10.1289412,31.104 C9.93694118,31.104 9.71294118,31.232 9.45694118,31.488 C9.20094118,31.744 9.00894118,31.872 8.88094118,31.872 C8.75294118,31.872 8.62494118,31.936 8.49694118,32.064 C8.41160784,32.192 8.17694118,32.32 7.79294118,32.448 C7.45160784,32.5333333 7.25960784,32.6186667 7.21694118,32.704 C7.13160784,32.832 6.93960784,32.96 6.64094118,33.088 C6.29960784,33.2586667 6.07560784,33.3973333 5.96894118,33.504 C5.86227451,33.6106667 5.74494118,33.664 5.61694118,33.664 C5.40360784,33.664 5.27560784,33.7493333 5.23294118,33.92 C5.14760784,34.0906667 4.82760784,34.2506667 4.27294118,34.4 C3.71827451,34.5493333 3.44094118,34.6666667 3.44094118,34.752 C3.44094118,34.9653333 3.22760784,35.072 2.80094118,35.072 C2.63027451,35.072 2.54494118,35.1146667 2.54494118,35.2 C2.54494118,35.2853333 2.48094118,35.328 2.35294118,35.328 C2.22494118,35.328 2.11827451,35.392 2.03294118,35.52 C1.94760784,35.6053333 1.67027451,35.6906667 1.20094118,35.776 C0.688941176,35.8186667 0.368941176,35.776 0.240941176,35.648 C-0.100392157,35.3066667 -0.0790588235,35.0933333 0.304941176,35.008 C0.51827451,34.9653333 0.667607843,34.8586667 0.752941176,34.688 C0.83827451,34.5173333 0.923607843,34.432 1.00894118,34.432 C1.09427451,34.432 1.25427451,34.3253333 1.48894118,34.112 C1.72360784,33.8986667 1.94760784,33.7706667 2.16094118,33.728 C2.33160784,33.6853333 2.52360784,33.5786667 2.73694118,33.408 C2.90760784,33.28 3.14227451,33.1306667 3.44094118,32.96 C3.73960784,32.7893333 3.91027451,32.6613333 3.95294118,32.576 C4.03827451,32.448 4.15560784,32.384 4.30494118,32.384 C4.45427451,32.384 4.74227451,32.1706667 5.16894118,31.744 C5.59560784,31.3173333 5.89427451,31.104 6.06494118,31.104 C6.23560784,31.104 6.47027451,30.976 6.76894118,30.72 C7.06760784,30.464 7.21694118,30.272 7.21694118,30.144 C7.21694118,30.016 7.32360784,29.9306667 7.53694118,29.888 C7.75027451,29.8026667 7.85694118,29.6746667 7.85694118,29.504 C7.85694118,29.3333333 7.98494118,29.1946667 8.24094118,29.088 C8.49694118,28.9813333 8.62494118,28.896 8.62494118,28.832 C8.62494118,28.768 8.72094118,28.736 8.91294118,28.736 C9.10494118,28.736 9.38227451,28.6613333 9.74494118,28.512 C10.1076078,28.3626667 10.3316078,28.1386667 10.4169412,27.84 C10.8009412,26.688 11.4836078,26.2613333 12.4649412,26.56 C12.7209412,26.6453333 12.8916078,26.6453333 12.9769412,26.56 C13.2329412,26.176 13.1902745,25.9413333 12.8489412,25.856 C12.6782745,25.8133333 12.5822745,25.7386667 12.5609412,25.632 C12.5396078,25.5253333 12.6142745,25.4293333 12.7849412,25.344 C12.9129412,25.3013333 12.9769412,25.216 12.9769412,25.088 C12.9769412,24.96 13.0836078,24.704 13.2969412,24.32 C13.5102745,23.936 13.5849412,23.5626667 13.5209412,23.2 C13.4569412,22.8373333 13.3822745,22.592 13.2969412,22.464 C13.1689412,22.3786667 13.1049412,22.2826667 13.1049412,22.176 C13.1049412,22.0693333 12.9982745,21.9093333 12.7849412,21.696 C12.6142745,21.5253333 12.5076078,21.3226667 12.4649412,21.088 C12.4222745,20.8533333 12.4649412,20.6933333 12.5929412,20.608 C12.6782745,20.5653333 12.6996078,20.3946667 12.6569412,20.096 C12.5716078,19.84 12.5289412,18.9866667 12.5289412,17.536 C12.4862745,14.208 12.3582745,12.3946667 12.1449412,12.096 C12.1022745,12.0106667 12.1662745,11.6373333 12.3369412,10.976 C12.5076078,10.3146667 12.5502745,9.94133333 12.4649412,9.856 C12.3796078,9.77066667 12.3369412,9.09866667 12.3369412,7.84 C12.3369412,6.58133333 12.2516078,5.90933333 12.0809412,5.824 C11.8249412,5.65333333 11.6756078,5.19466667 11.6329412,4.448 C11.5902745,3.70133333 11.6756078,3.28533333 11.8889412,3.2 C12.0169412,3.15733333 12.2089412,3.18933333 12.4649412,3.296 C12.7209412,3.40266667 12.9129412,3.49866667 13.0409412,3.584 C13.1262745,3.712 13.2756078,3.79733333 13.4889412,3.84 C13.7022745,3.88266667 13.9262745,4.02133333 14.1609412,4.256 C14.3956078,4.49066667 14.8116078,4.62933333 15.4089412,4.672 C16.0062745,4.71466667 16.5822745,4.65066667 17.1369412,4.48 C17.6062745,4.30933333 18.2249412,4.24533333 18.9929412,4.288 C19.7609412,4.288 20.2516078,4.24533333 20.4649412,4.16 C20.6782745,4.032 21.4676078,3.94666667 22.8329412,3.904 L24.9449412,3.776 L25.4569412,3.328 C25.7556078,2.98666667 25.9049412,2.77333333 25.9049412,2.688 C25.9049412,2.60266667 26.1396078,2.32533333 26.6089412,1.856 C27.0356078,1.42933333 27.2702745,1.17333333 27.3129412,1.088 C27.3556078,1.04533333 27.4836078,0.832 27.6969412,0.448 Z M16.9449412,20.224 C16.8169412,19.8826667 16.4969412,19.776 15.9849412,19.904 C15.6862745,20.032 15.5796078,20.3306667 15.6649412,20.8 C15.7076078,21.0133333 15.8782745,21.12 16.1769412,21.12 C16.4756078,21.12 16.6996078,21.0346667 16.8489412,20.864 C16.9982745,20.6933333 17.0302745,20.48 16.9449412,20.224 Z M15.5369412,21.888 C15.4942745,21.6746667 15.3449412,21.568 15.0889412,21.568 C14.6196078,21.568 14.3849412,21.824 14.3849412,22.336 C14.3849412,22.592 14.4916078,22.752 14.7049412,22.816 C14.9182745,22.88 15.1102745,22.8906667 15.2809412,22.848 C15.6222745,22.7626667 15.7076078,22.4426667 15.5369412,21.888 Z M17.4569412,30.848 C17.4142745,30.72 17.3289412,30.656 17.2009412,30.656 C17.0729412,30.656 17.0089412,30.752 17.0089412,30.944 C17.0089412,31.136 17.0729412,31.2533333 17.2009412,31.296 C17.3289412,31.3386667 17.4249412,31.3066667 17.4889412,31.2 C17.5529412,31.0933333 17.5422745,30.976 17.4569412,30.848 Z M36.7849412,23.616 C37.1262745,23.1466667 37.3716078,22.8693333 37.5209412,22.784 C37.6702745,22.6986667 37.8942745,22.6666667 38.1929412,22.688 C38.4916078,22.7093333 38.7049412,22.7626667 38.8329412,22.848 C38.8756078,22.9333333 38.9182745,23.1253333 38.9609412,23.424 C39.0462745,23.936 39.1209412,24.2453333 39.1849412,24.352 C39.2489412,24.4586667 39.4089412,24.576 39.6649412,24.704 C40.0062745,24.832 40.1769412,24.9386667 40.1769412,25.024 C40.1769412,25.1093333 40.3262745,25.3226667 40.6249412,25.664 C40.9236078,26.0053333 41.0729412,26.208 41.0729412,26.272 C41.0729412,26.336 41.1582745,26.432 41.3289412,26.56 C41.4996078,26.6453333 41.5742745,26.9013333 41.5529412,27.328 C41.5316078,27.7546667 41.4356078,27.968 41.2649412,27.968 C41.1796078,27.968 40.9769412,28.0746667 40.6569412,28.288 C40.3369412,28.5013333 40.1769412,28.6506667 40.1769412,28.736 C40.1769412,28.8213333 40.0702745,28.9493333 39.8569412,29.12 C39.6436078,29.2906667 39.5369412,29.4186667 39.5369412,29.504 C39.5369412,29.5893333 39.4516078,29.7386667 39.2809412,29.952 C39.1102745,30.1653333 39.0249412,30.4 39.0249412,30.656 C39.0249412,31.296 38.8969412,31.6373333 38.6409412,31.68 C38.5129412,31.7226667 38.3849412,31.9253333 38.2569412,32.288 C38.1289412,32.6506667 37.9902745,32.9066667 37.8409412,33.056 C37.6916078,33.2053333 37.6169412,33.344 37.6169412,33.472 C37.6169412,33.6 37.5529412,33.6853333 37.4249412,33.728 C37.2542745,33.7706667 37.1049412,33.984 36.9769412,34.368 C36.8489412,34.752 36.7422745,34.9866667 36.6569412,35.072 C36.5289412,35.2 36.4222745,35.4133333 36.3369412,35.712 C36.2516078,36.0106667 36.1236078,36.2026667 35.9529412,36.288 C35.8249412,36.288 35.7076078,36.4586667 35.6009412,36.8 C35.4942745,37.1413333 35.3876078,37.376 35.2809412,37.504 C35.1742745,37.632 35.0996078,37.8666667 35.0569412,38.208 C34.9716078,38.5066667 34.8862745,38.72 34.8009412,38.848 C34.6729412,38.9333333 34.5662745,39.2533333 34.4809412,39.808 C34.3956078,40.2346667 34.2462745,40.6293333 34.0329412,40.992 C33.8196078,41.3546667 33.6489412,41.536 33.5209412,41.536 C33.3929412,41.536 33.2862745,41.728 33.2009412,42.112 C33.0302745,42.5813333 32.6889412,43.0933333 32.1769412,43.648 C32.0062745,43.8613333 31.8996078,44.096 31.8569412,44.352 C31.8142745,44.5226667 31.6862745,44.7253333 31.4729412,44.96 C31.2596078,45.1946667 31.0462745,45.3546667 30.8329412,45.44 C30.7049412,45.4826667 30.6409412,45.632 30.6409412,45.888 C30.6409412,46.4853333 30.4916078,46.784 30.1929412,46.784 C30.0649412,46.784 29.9796078,46.8906667 29.9369412,47.104 C29.8942745,47.3173333 29.8196078,47.424 29.7129412,47.424 C29.6062745,47.424 29.4569412,47.5306667 29.2649412,47.744 C29.0729412,47.9573333 28.9129412,48.064 28.7849412,48.064 C28.6569412,48.064 28.5929412,48.1173333 28.5929412,48.224 C28.5929412,48.3306667 28.4649412,48.4586667 28.2089412,48.608 C27.9529412,48.7573333 27.8249412,48.896 27.8249412,49.024 C27.8249412,49.152 27.7396078,49.216 27.5689412,49.216 C27.3982745,49.216 27.1422745,49.344 26.8009412,49.6 C26.5022745,49.8986667 26.2996078,50.048 26.1929412,50.048 C26.0862745,50.048 26.0329412,50.112 26.0329412,50.24 C26.0329412,50.368 25.9689412,50.4746667 25.8409412,50.56 C25.6702745,50.6026667 25.5209412,50.7093333 25.3929412,50.88 C25.2649412,51.0506667 24.8382745,51.136 24.1129412,51.136 C23.3876078,51.136 23.0036078,51.1146667 22.9609412,51.072 C22.8756078,51.0293333 22.7689412,50.304 22.6409412,48.896 C22.5129412,47.5306667 22.3956078,46.8053333 22.2889412,46.72 C22.1822745,46.6346667 22.1289412,46.432 22.1289412,46.112 C22.1289412,45.792 22.0009412,45.5893333 21.7449412,45.504 C21.5316078,45.4186667 21.4036078,45.28 21.3609412,45.088 C21.3182745,44.896 21.3822745,44.736 21.5529412,44.608 C21.6809412,44.5226667 21.9582745,44.5653333 22.3849412,44.736 C22.8116078,44.9493333 23.0249412,45.088 23.0249412,45.152 C23.0249412,45.216 23.1742745,45.2693333 23.4729412,45.312 C23.8142745,45.3973333 24.0489412,45.504 24.1769412,45.632 C24.3476078,45.76 24.4969412,45.7173333 24.6249412,45.504 C24.7529412,45.3333333 24.8809412,45.248 25.0089412,45.248 C25.0942745,45.248 25.1369412,45.2053333 25.1369412,45.12 C25.1369412,45.0346667 25.2862745,44.8426667 25.5849412,44.544 C25.8836078,44.2453333 26.0969412,44.096 26.2249412,44.096 C26.3529412,44.096 26.5022745,44.0106667 26.6729412,43.84 C26.8009412,43.6693333 26.8969412,43.584 26.9609412,43.584 C27.0249412,43.584 27.2276078,43.4133333 27.5689412,43.072 C27.9102745,42.7306667 28.0809412,42.528 28.0809412,42.464 C28.0809412,42.4 28.1662745,42.3253333 28.3369412,42.24 C28.4649412,42.1546667 28.5502745,41.8133333 28.5929412,41.216 C28.6356078,40.6186667 28.8276078,40.1066667 29.1689412,39.68 C29.6809412,38.912 30.1076078,38.6026667 30.4489412,38.752 C30.7902745,38.9013333 31.1209412,38.944 31.4409412,38.88 C31.7609412,38.816 31.9209412,38.656 31.9209412,38.4 C31.9209412,37.9306667 31.6649412,37.6533333 31.1529412,37.568 C30.8969412,37.5253333 30.7476078,37.472 30.7049412,37.408 C30.6622745,37.344 30.6409412,37.184 30.6409412,36.928 C30.6409412,36.544 30.7476078,36.3306667 30.9609412,36.288 C31.1742745,36.2453333 31.2809412,36.16 31.2809412,36.032 C31.2809412,35.904 31.3662745,35.8186667 31.5369412,35.776 C31.6649412,35.7333333 31.8462745,35.5733333 32.0809412,35.296 C32.3156078,35.0186667 32.4542745,34.4106667 32.4969412,33.472 L32.4969412,32.064 L33.1369412,31.424 C33.5209412,31.04 33.6916078,30.72 33.6489412,30.464 C33.6062745,30.208 33.7982745,29.568 34.2249412,28.544 C34.3102745,28.2453333 34.2569412,27.968 34.0649412,27.712 C33.8729412,27.456 33.4782745,27.328 32.8809412,27.328 C32.3262745,27.328 32.0489412,27.3706667 32.0489412,27.456 C32.0489412,27.7546667 31.6436078,27.84 30.8329412,27.712 C30.3636078,27.6266667 29.8729412,27.6586667 29.3609412,27.808 C28.8489412,27.9573333 28.3156078,27.968 27.7609412,27.84 C27.2062745,27.7546667 26.8649412,27.776 26.7369412,27.904 C26.3529412,28.416 26.4169412,28.9493333 26.9289412,29.504 C27.1849412,29.8026667 27.3129412,30.0266667 27.3129412,30.176 C27.3129412,30.3253333 27.4836078,30.5493333 27.8249412,30.848 L28.3369412,31.36 L28.1449412,31.872 C27.9742745,32.256 27.8036078,32.4693333 27.6329412,32.512 C27.5049412,32.512 27.3022745,32.7573333 27.0249412,33.248 C26.7476078,33.7386667 26.5662745,34.176 26.4809412,34.56 C26.4382745,34.816 26.3529412,34.9653333 26.2249412,35.008 C26.0969412,35.0506667 26.0329412,35.136 26.0329412,35.264 C26.0329412,35.392 25.9049412,35.52 25.6489412,35.648 C25.3929412,35.776 25.2649412,35.904 25.2649412,36.032 C25.2649412,36.16 25.1902745,36.224 25.0409412,36.224 C24.8916078,36.224 24.6676078,36.3946667 24.3689412,36.736 C24.1982745,36.9493333 23.9636078,37.2266667 23.6649412,37.568 C23.4942745,37.7386667 23.4089412,37.8666667 23.4089412,37.952 C23.4089412,38.0373333 23.3022745,38.1226667 23.0889412,38.208 C22.8756078,38.336 22.7262745,38.5493333 22.6409412,38.848 C22.5556078,39.1893333 22.4489412,39.4133333 22.3209412,39.52 C22.1929412,39.6266667 22.1289412,39.7546667 22.1289412,39.904 C22.1289412,40.0533333 22.0222745,40.1706667 21.8089412,40.256 C21.5956078,40.2986667 21.4676078,40.3733333 21.4249412,40.48 C21.3822745,40.5866667 21.3076078,40.64 21.2009412,40.64 C21.0942745,40.64 20.7742745,40.9066667 20.2409412,41.44 C19.7076078,41.9733333 19.4409412,42.2826667 19.4409412,42.368 C19.4409412,42.496 19.3342745,42.6026667 19.1209412,42.688 C18.9076078,42.7733333 18.8009412,42.8586667 18.8009412,42.944 C18.8009412,43.0293333 18.6942745,43.1786667 18.4809412,43.392 C18.2676078,43.6053333 18.1609412,43.776 18.1609412,43.904 C18.1609412,43.9893333 18.0222745,44.128 17.7449412,44.32 C17.4676078,44.512 17.2862745,44.608 17.2009412,44.608 C16.9876078,44.608 16.7956078,44.6933333 16.6249412,44.864 C16.4542745,45.0346667 16.3476078,45.2266667 16.3049412,45.44 C16.2622745,45.7386667 16.1129412,45.952 15.8569412,46.08 C15.6009412,46.208 15.4729412,46.3146667 15.4729412,46.4 C15.4729412,46.4853333 15.3022745,46.5706667 14.9609412,46.656 C14.6196078,46.784 14.4276078,46.9546667 14.3849412,47.168 C14.3422745,47.3386667 14.2569412,47.4453333 14.1289412,47.488 C14.0009412,47.5733333 13.8729412,47.68 13.7449412,47.808 C13.6596078,47.936 13.3182745,48.0426667 12.7209412,48.128 C12.2942745,48.1706667 12.0276078,48.2133333 11.9209412,48.256 C11.8142745,48.2986667 11.7396078,48.4266667 11.6969412,48.64 C11.5689412,48.9386667 11.3982745,49.1306667 11.1849412,49.216 C10.9289412,49.3866667 10.7369412,49.536 10.6089412,49.664 C10.4809412,49.8346667 10.1929412,50.0266667 9.74494118,50.24 C9.29694118,50.4533333 9.00894118,50.56 8.88094118,50.56 C8.75294118,50.56 8.53960784,50.688 8.24094118,50.944 C7.98494118,51.2 7.77160784,51.328 7.60094118,51.328 C7.51560784,51.328 7.36627451,51.392 7.15294118,51.52 C6.93960784,51.6906667 6.57694118,51.7973333 6.06494118,51.84 C5.59560784,51.968 5.33960784,52.096 5.29694118,52.224 C5.16894118,52.5653333 4.63560784,52.736 3.69694118,52.736 C3.35560784,52.736 3.09960784,52.6293333 2.92894118,52.416 C2.75827451,52.2453333 2.70494118,52.1173333 2.76894118,52.032 C2.83294118,51.9466667 3.03560784,51.8826667 3.37694118,51.84 C3.71827451,51.7973333 3.88894118,51.6906667 3.88894118,51.52 C3.93160784,51.3066667 4.01694118,51.1786667 4.14494118,51.136 C4.35827451,51.0933333 4.68894118,50.9546667 5.13694118,50.72 C5.58494118,50.4853333 5.83027451,50.3253333 5.87294118,50.24 C5.91560784,50.1546667 6.10760784,50.0373333 6.44894118,49.888 C6.79027451,49.7386667 6.98227451,49.6 7.02494118,49.472 C7.15294118,49.3866667 7.34494118,49.3226667 7.60094118,49.28 C7.89960784,49.2373333 8.26227451,49.0026667 8.68894118,48.576 C9.11560784,48.1493333 9.38227451,47.936 9.48894118,47.936 C9.59560784,47.936 9.79827451,47.7866667 10.0969412,47.488 C10.3956078,47.1893333 10.5449412,46.9973333 10.5449412,46.912 C10.5449412,46.8266667 10.6942745,46.7626667 10.9929412,46.72 C11.2489412,46.592 11.4622745,46.4213333 11.6329412,46.208 C11.9316078,45.7386667 12.2942745,45.504 12.7209412,45.504 C12.8062745,45.504 13.1049412,45.2373333 13.6169412,44.704 C14.1289412,44.1706667 14.3849412,43.8613333 14.3849412,43.776 C14.3849412,43.6906667 14.4916078,43.5733333 14.7049412,43.424 C14.9182745,43.2746667 15.0249412,43.136 15.0249412,43.008 C15.0249412,42.9226667 15.1956078,42.6666667 15.5369412,42.24 C15.9209412,41.856 16.1556078,41.5786667 16.2409412,41.408 C16.2409412,41.2373333 16.5182745,40.8746667 17.0729412,40.32 C17.8836078,39.552 18.5022745,39.296 18.9289412,39.552 C19.1422745,39.6373333 19.3342745,39.616 19.5049412,39.488 C19.8889412,39.3173333 19.8676078,39.168 19.4409412,39.04 C19.3129412,39.04 19.1422745,39.0186667 18.9289412,38.976 C18.5876078,38.9333333 18.4169412,38.8266667 18.4169412,38.656 C18.4169412,38.4853333 18.4596078,38.4 18.5449412,38.4 C18.5876078,38.4 18.6729412,38.272 18.8009412,38.016 C18.9716078,37.76 19.1849412,37.6106667 19.4409412,37.568 C19.6969412,37.5253333 19.9102745,37.312 20.0809412,36.928 C20.2942745,36.5013333 20.4649412,36.288 20.5929412,36.288 C20.7636078,36.2453333 20.8489412,36.0533333 20.8489412,35.712 C20.8489412,35.456 20.8916078,35.2 20.9769412,34.944 C21.0622745,34.688 21.1476078,34.56 21.2329412,34.56 C21.3182745,34.56 21.4889412,34.304 21.7449412,33.792 C22.0009412,33.28 22.1289412,32.96 22.1289412,32.832 C22.1289412,32.704 22.4169412,32.352 22.9929412,31.776 C23.5689412,31.2 23.8996078,30.6986667 23.9849412,30.272 C24.0702745,29.8453333 24.2196078,29.4186667 24.4329412,28.992 C24.6462745,28.5653333 24.7529412,28.3093333 24.7529412,28.224 C24.7529412,28.1386667 24.8276078,28.0533333 24.9769412,27.968 C25.1262745,27.8826667 25.2649412,27.648 25.3929412,27.264 C25.4782745,26.9226667 25.6276078,26.6986667 25.8409412,26.592 C26.0542745,26.4853333 26.4382745,26.4533333 26.9929412,26.496 C27.5049412,26.5386667 27.8889412,26.4746667 28.1449412,26.304 C28.3156078,26.0906667 28.5929412,25.952 28.9769412,25.888 C29.3609412,25.824 29.6596078,25.8346667 29.8729412,25.92 C30.0009412,26.0053333 30.2356078,26.048 30.5769412,26.048 C30.9182745,26.048 31.1209412,26.112 31.1849412,26.24 C31.2489412,26.368 31.4729412,26.432 31.8569412,26.432 C32.2409412,26.432 32.4542745,26.368 32.4969412,26.24 C32.5396078,26.112 32.7742745,26.048 33.2009412,26.048 C33.5422745,26.048 33.9262745,26.0266667 34.3529412,25.984 C34.7369412,25.9413333 34.9502745,25.8133333 34.9929412,25.6 C35.0356078,25.3866667 35.1849412,25.2373333 35.4409412,25.152 C35.6969412,25.0666667 35.8249412,24.9813333 35.8249412,24.896 C35.8249412,24.8106667 35.9102745,24.7466667 36.0809412,24.704 C36.2516078,24.6613333 36.3369412,24.5973333 36.3369412,24.512 C36.3369412,24.3413333 36.4862745,24.0426667 36.7849412,23.616 Z M35.8889412,32.832 C35.9316078,32.9173333 36.0062745,32.9066667 36.1129412,32.8 C36.2196078,32.6933333 36.2196078,32.5973333 36.1129412,32.512 C36.0062745,32.4266667 35.9316078,32.448 35.8889412,32.576 C35.8462745,32.704 35.8462745,32.7893333 35.8889412,32.832 Z M23.6009412,35.2 C23.5156078,35.1146667 23.4196078,35.072 23.3129412,35.072 C23.2062745,35.072 23.1316078,35.1146667 23.0889412,35.2 C23.0036078,35.2853333 23.0462745,35.3493333 23.2169412,35.392 C23.3449412,35.4346667 23.4516078,35.4346667 23.5369412,35.392 C23.6222745,35.3493333 23.6436078,35.2853333 23.6009412,35.2 Z M23.4089412,46.336 C23.3662745,46.1653333 23.2702745,46.0906667 23.1209412,46.112 C22.9716078,46.1333333 22.8969412,46.2293333 22.8969412,46.4 C22.8969412,46.5706667 22.9609412,46.656 23.0889412,46.656 C23.3876078,46.656 23.4942745,46.5493333 23.4089412,46.336 Z M23.5369412,47.104 C23.6222745,47.1466667 23.7076078,47.1253333 23.7929412,47.04 C23.8782745,46.9546667 23.8782745,46.8586667 23.7929412,46.752 C23.7076078,46.6453333 23.6329412,46.6666667 23.5689412,46.816 C23.5049412,46.9653333 23.4942745,47.0613333 23.5369412,47.104 Z" id="形状"></path>
                <path d="M69.1049412,4.928 C69.2756078,4.75733333 69.4249412,4.672 69.5529412,4.672 C69.8089412,4.672 70.1502745,4.88533333 70.5769412,5.312 C70.7049412,5.44 70.9396078,5.504 71.2809412,5.504 C71.6222745,5.504 71.9422745,5.632 72.2409412,5.888 C72.5396078,6.144 72.7849412,6.29333333 72.9769412,6.336 C73.1689412,6.37866667 73.2862745,6.44266667 73.3289412,6.528 C73.3716078,6.61333333 73.6916078,6.69866667 74.2889412,6.784 C75.3982745,6.86933333 76.0382745,6.944 76.2089412,7.008 C76.3796078,7.072 76.5076078,7.232 76.5929412,7.488 C76.8489412,8.17066667 76.7636078,8.61866667 76.3369412,8.832 C76.1662745,8.91733333 76.0596078,9.04533333 76.0169412,9.216 C75.9742745,9.38666667 75.8036078,9.49333333 75.5049412,9.536 C75.2489412,9.62133333 75.0569412,9.81333333 74.9289412,10.112 C74.8009412,10.4106667 74.7262745,11.008 74.7049412,11.904 C74.6836078,12.8 74.6516078,15.744 74.6089412,20.736 C74.6089412,27.9893333 74.7156078,31.8293333 74.9289412,32.256 C75.0996078,32.5973333 75.1849412,33.536 75.1849412,35.072 C75.1849412,36.608 75.0996078,37.6106667 74.9289412,38.08 C74.8009412,38.5066667 74.7156078,39.4453333 74.6729412,40.896 C74.6302745,42.3466667 74.5236078,43.0933333 74.3529412,43.136 C74.2249412,43.1786667 74.1396078,43.4133333 74.0969412,43.84 C73.9689412,44.6933333 73.7982745,45.1626667 73.5849412,45.248 C73.4569412,45.2906667 73.3716078,45.4826667 73.3289412,45.824 C73.2862745,46.1653333 73.2009412,46.4 73.0729412,46.528 C72.9022745,46.6986667 72.7316078,46.9333333 72.5609412,47.232 C72.3902745,47.5733333 72.2409412,47.7866667 72.1129412,47.872 C72.0276078,47.9573333 71.9849412,48.0853333 71.9849412,48.256 C71.9422745,48.3413333 71.8356078,48.5013333 71.6649412,48.736 C71.4942745,48.9706667 71.3236078,49.1306667 71.1529412,49.216 C70.9822745,49.3013333 70.7476078,49.28 70.4489412,49.152 C70.1076078,48.9813333 69.8836078,48.7146667 69.7769412,48.352 C69.6702745,47.9893333 69.5742745,47.7653333 69.4889412,47.68 C69.2756078,47.552 69.1796078,47.1253333 69.2009412,46.4 C69.2222745,45.6746667 69.3182745,45.2266667 69.4889412,45.056 C69.7449412,44.7573333 69.8729412,43.8826667 69.8729412,42.432 C69.8729412,40.5973333 70.0222745,39.232 70.3209412,38.336 C70.4916078,37.7813333 70.5769412,35.3706667 70.5769412,31.104 C70.5769412,29.312 70.5129412,28.3946667 70.3849412,28.352 C70.2996078,28.2666667 70.2569412,27.9146667 70.2569412,27.296 C70.2569412,26.6773333 70.2996078,26.048 70.3849412,25.408 C70.4702745,24.8106667 70.5129412,23.9253333 70.5129412,22.752 C70.5129412,21.5786667 70.4489412,20.9706667 70.3209412,20.928 C70.2356078,20.8853333 70.1716078,20.4586667 70.1289412,19.648 C70.0436078,18.7946667 69.9796078,18.0906667 69.9369412,17.536 C69.8516078,16.896 69.8516078,16.3626667 69.9369412,15.936 C70.0222745,15.4666667 70.0009412,14.8053333 69.8729412,13.952 C69.7449412,13.1413333 69.6596078,12.4693333 69.6169412,11.936 C69.5742745,11.4026667 69.5102745,10.88 69.4249412,10.368 C69.3822745,9.77066667 69.3182745,8.87466667 69.2329412,7.68 C69.1902745,6.528 69.1049412,5.86666667 68.9769412,5.696 C68.8062745,5.35466667 68.8489412,5.09866667 69.1049412,4.928 Z M77.3609412,19.776 C77.3609412,19.392 77.3929412,19.168 77.4569412,19.104 C77.5209412,19.04 77.6062745,19.0186667 77.7129412,19.04 C77.8196078,19.0613333 77.8942745,19.0933333 77.9369412,19.136 C77.9796078,19.2213333 78.1076078,19.3066667 78.3209412,19.392 C78.4916078,19.4773333 78.6196078,19.616 78.7049412,19.808 C78.7902745,20 79.0142745,20.1386667 79.3769412,20.224 C79.7396078,20.3093333 79.9422745,20.4586667 79.9849412,20.672 C80.0276078,20.8853333 80.0916078,20.992 80.1769412,20.992 C80.2622745,20.992 80.4542745,21.1413333 80.7529412,21.44 C81.0516078,21.7386667 81.2222745,21.952 81.2649412,22.08 C81.3076078,22.1653333 81.5209412,22.272 81.9049412,22.4 C82.2462745,22.4853333 82.4809412,22.6133333 82.6089412,22.784 C82.6516078,22.9546667 82.7476078,23.04 82.8969412,23.04 C83.0462745,23.04 83.1636078,23.1253333 83.2489412,23.296 C83.3342745,23.4666667 83.4836078,23.6053333 83.6969412,23.712 C83.9102745,23.8186667 84.0169412,23.9146667 84.0169412,24 C84.0169412,24.0853333 84.1236078,24.2133333 84.3369412,24.384 C84.5502745,24.5546667 84.7422745,24.9173333 84.9129412,25.472 C85.2969412,26.9226667 85.4676078,28.16 85.4249412,29.184 C85.3822745,29.824 85.3396078,30.208 85.2969412,30.336 C85.2542745,30.464 85.1262745,30.6346667 84.9129412,30.848 C84.6569412,31.104 84.5289412,31.2533333 84.5289412,31.296 C84.5289412,31.424 84.3902745,31.5413333 84.1129412,31.648 C83.8356078,31.7546667 83.5689412,31.808 83.3129412,31.808 C82.9716078,31.808 82.7689412,31.9146667 82.7049412,32.128 C82.6409412,32.3413333 82.4382745,32.4266667 82.0969412,32.384 C81.7982745,32.2986667 81.6169412,32.2346667 81.5529412,32.192 C81.4889412,32.1493333 81.4142745,31.9786667 81.3289412,31.68 C81.2436078,31.3386667 81.1582745,31.104 81.0729412,30.976 C80.7742745,30.6346667 80.6462745,29.696 80.6889412,28.16 C80.7742745,27.3066667 80.7316078,26.7093333 80.5609412,26.368 C80.4329412,26.0266667 80.3262745,25.8133333 80.2409412,25.728 C80.1129412,25.6426667 80.0276078,25.4506667 79.9849412,25.152 C79.9422745,24.8533333 79.8142745,24.6186667 79.6009412,24.448 C79.4302745,24.2773333 79.3449412,24.0213333 79.3449412,23.68 C79.3449412,23.168 79.1742745,22.7413333 78.8329412,22.4 C78.6622745,22.2293333 78.5769412,22.048 78.5769412,21.856 C78.5769412,21.664 78.5556078,21.568 78.5129412,21.568 C78.4276078,21.568 78.2569412,21.376 78.0009412,20.992 C77.7449412,20.5653333 77.5742745,20.352 77.4889412,20.352 C77.4462745,20.352 77.4036078,20.16 77.3609412,19.776 Z" id="形状"></path>
            </g>
        </g>
    </g>
</svg>