<svg width="59" height="19" viewBox="0 0 59 19" fill="none" xmlns="http://www.w3.org/2000/svg">
<path d="M12.784 0.136C12.864 0.0719995 13.008 0.0799994 13.216 0.159999C13.424 0.224 13.584 0.311999 13.696 0.423999C13.744 0.487999 13.848 0.527999 14.008 0.543999C14.168 0.559999 14.264 0.584 14.296 0.615999C14.328 0.647999 14.44 0.687999 14.632 0.735999C14.856 0.768 14.968 0.808 14.968 0.855999C14.968 0.888 14.952 0.92 14.92 0.951999C14.856 1 14.8 1.08 14.752 1.192C14.72 1.304 14.688 1.368 14.656 1.384C14.608 1.4 14.544 1.48 14.464 1.624C14.4 1.768 14.352 1.888 14.32 1.984C14.304 2.08 14.28 2.136 14.248 2.152C14.216 2.168 14.192 2.232 14.176 2.344C14.176 2.44 14.192 2.496 14.224 2.512C14.256 2.528 14.28 2.576 14.296 2.656C14.328 2.72 14.408 2.76 14.536 2.776C14.664 2.792 14.744 2.824 14.776 2.872C14.824 2.92 14.896 2.92 14.992 2.872C15.088 2.824 15.224 2.792 15.4 2.776C15.56 2.744 15.664 2.704 15.712 2.656C15.776 2.608 15.856 2.56 15.952 2.512C16.048 2.464 16.096 2.424 16.096 2.392C16.096 2.36 16.128 2.336 16.192 2.32C16.24 2.304 16.296 2.264 16.36 2.2C16.424 2.152 16.52 2.08 16.648 1.984C16.792 1.888 16.944 1.848 17.104 1.864C17.248 1.88 17.344 1.92 17.392 1.984C17.408 2.032 17.496 2.136 17.656 2.296C17.816 2.456 17.896 2.616 17.896 2.776C17.896 2.984 17.848 3.104 17.752 3.136C17.656 3.168 17.264 3.184 16.576 3.184C15.056 3.184 14.232 3.256 14.104 3.4C14.088 3.416 14.072 3.6 14.056 3.952C14.056 4.288 14.032 4.488 13.984 4.552C13.936 4.6 13.912 4.64 13.912 4.672C13.928 4.688 13.976 4.728 14.056 4.792C14.168 4.904 14.24 4.944 14.272 4.912C14.32 4.88 14.472 4.848 14.728 4.816C14.984 4.8 15.144 4.768 15.208 4.72C15.272 4.688 15.336 4.672 15.4 4.672C15.464 4.672 15.528 4.656 15.592 4.624C15.656 4.576 15.704 4.552 15.736 4.552C15.768 4.552 15.832 4.504 15.928 4.408C16.04 4.312 16.104 4.24 16.12 4.192C16.136 4.144 16.192 4.112 16.288 4.096C16.4 4.064 16.496 4.056 16.576 4.072C16.672 4.104 16.768 4.16 16.864 4.24C16.976 4.32 17.048 4.36 17.08 4.36C17.128 4.36 17.24 4.448 17.416 4.624C17.48 4.672 17.536 4.712 17.584 4.744C17.648 4.76 17.696 4.816 17.728 4.912C17.776 5.008 17.76 5.112 17.68 5.224C17.616 5.336 17.552 5.4 17.488 5.416C17.424 5.432 17.392 5.512 17.392 5.656C17.392 5.784 17.368 5.848 17.32 5.848C17.288 5.848 17.272 5.848 17.272 5.848C17.24 6.232 17.2 6.536 17.152 6.76C17.04 7.272 17.024 7.56 17.104 7.624C17.152 7.672 17.168 7.76 17.152 7.888C17.136 8 17.112 8.08 17.08 8.128C17.048 8.16 17.024 8.448 17.008 8.992L16.96 9.784L16.744 9.976C16.6 10.12 16.536 10.232 16.552 10.312C16.584 10.376 16.664 10.44 16.792 10.504C16.92 10.552 16.992 10.6 17.008 10.648C17.024 10.696 17.088 10.736 17.2 10.768L17.392 10.792V11.224C17.408 11.512 17.4 11.656 17.368 11.656C17.336 11.656 17.296 11.728 17.248 11.872C17.184 12 17.136 12.064 17.104 12.064C17.088 12.064 17.008 12.136 16.864 12.28C16.736 12.408 16.656 12.472 16.624 12.472C16.608 12.472 16.552 12.432 16.456 12.352C16.376 12.272 16.336 12.216 16.336 12.184C16.336 12.152 16.296 12.088 16.216 11.992C16.136 11.896 16.096 11.832 16.096 11.8C16.096 11.768 16.072 11.696 16.024 11.584C15.96 11.472 15.928 11.392 15.928 11.344C15.928 11.28 15.888 11.24 15.808 11.224C15.744 11.192 15.592 11.176 15.352 11.176C15.08 11.176 14.84 11.184 14.632 11.2L14.368 11.224V11.44C14.368 11.584 14.376 11.656 14.392 11.656C14.424 11.656 14.448 11.688 14.464 11.752C14.48 11.816 14.528 11.856 14.608 11.872C14.672 11.888 14.728 11.92 14.776 11.968C14.824 12.016 14.96 12.056 15.184 12.088C15.392 12.104 15.512 12.136 15.544 12.184C15.592 12.216 15.616 12.304 15.616 12.448C15.632 12.592 15.656 12.68 15.688 12.712C15.736 12.744 15.944 12.76 16.312 12.76C16.68 12.76 16.904 12.728 16.984 12.664C17.08 12.6 17.168 12.56 17.248 12.544C17.344 12.528 17.4 12.496 17.416 12.448C17.464 12.416 17.544 12.368 17.656 12.304C17.768 12.256 17.832 12.216 17.848 12.184C17.864 12.136 17.936 12.112 18.064 12.112C18.208 12.112 18.296 12.152 18.328 12.232C18.36 12.296 18.4 12.328 18.448 12.328C18.496 12.328 18.536 12.36 18.568 12.424C18.616 12.472 18.664 12.504 18.712 12.52C18.76 12.552 18.784 12.632 18.784 12.76C18.784 12.888 18.744 13 18.664 13.096C18.52 13.24 18.36 13.248 18.184 13.12L18.016 13H17.2C16.672 13.016 16.384 13.04 16.336 13.072C16.288 13.12 16.176 13.16 16 13.192C15.824 13.224 15.728 13.24 15.712 13.24C15.664 13.288 15.64 13.984 15.64 15.328C15.64 16.08 15.616 16.472 15.568 16.504C15.504 16.536 15.472 16.568 15.472 16.6C15.472 16.648 15.424 16.728 15.328 16.84C15.248 16.968 15.208 17.056 15.208 17.104C15.208 17.152 15.176 17.192 15.112 17.224C15.064 17.256 15.04 17.288 15.04 17.32C15.04 17.352 15 17.408 14.92 17.488C14.856 17.552 14.808 17.656 14.776 17.8C14.744 18.072 14.608 18.296 14.368 18.472C14.288 18.536 14.168 18.576 14.008 18.592C13.848 18.608 13.72 18.592 13.624 18.544C13.544 18.512 13.496 18.472 13.48 18.424C13.48 18.392 13.472 18.288 13.456 18.112C13.44 17.872 13.392 17.72 13.312 17.656C13.232 17.592 13.192 17.536 13.192 17.488C13.192 17.456 13.16 17.44 13.096 17.44C13.032 17.44 12.992 17.416 12.976 17.368C12.976 17.32 12.944 17.28 12.88 17.248C12.688 17.168 12.656 17.072 12.784 16.96C12.832 16.896 12.88 16.88 12.928 16.912C12.976 16.944 13.104 16.96 13.312 16.96H13.648L13.696 16.744C13.728 16.616 13.76 16.552 13.792 16.552C13.872 16.552 13.912 16.136 13.912 15.304C13.912 14.824 13.928 14.568 13.96 14.536C14.008 14.504 14.032 14.44 14.032 14.344C14.032 14.248 14.016 14.168 13.984 14.104C13.936 14.04 13.912 13.864 13.912 13.576L13.888 13.168H13.552C13.184 13.184 12.928 13.248 12.784 13.36C12.72 13.392 12.536 13.408 12.232 13.408C11.912 13.408 11.704 13.424 11.608 13.456C11.528 13.472 11.488 13.52 11.488 13.6C11.488 13.76 11.64 13.92 11.944 14.08C12.056 14.144 12.112 14.192 12.112 14.224C12.112 14.24 12.144 14.256 12.208 14.272C12.352 14.304 12.4 14.56 12.352 15.04C12.288 15.664 12.224 16.008 12.16 16.072C12.128 16.104 12.088 16.152 12.04 16.216C11.992 16.264 11.896 16.28 11.752 16.264C11.624 16.264 11.528 16.24 11.464 16.192C11.416 16.144 11.296 16.104 11.104 16.072C10.96 16.056 10.872 16.04 10.84 16.024C10.808 16.008 10.784 15.968 10.768 15.904C10.752 15.824 10.752 15.696 10.768 15.52C10.784 15.328 10.808 15.216 10.84 15.184C10.872 15.152 10.904 15.064 10.936 14.92C10.952 14.776 10.96 14.576 10.96 14.32C10.96 14.048 10.944 13.888 10.912 13.84C10.88 13.792 10.88 13.728 10.912 13.648C10.96 13.552 10.96 13.488 10.912 13.456C10.848 13.424 10.632 13.416 10.264 13.432C9.912 13.448 9.576 13.48 9.256 13.528C9.144 13.544 9.024 13.528 8.896 13.48C8.8 13.432 8.744 13.4 8.728 13.384C8.712 13.352 8.712 13.296 8.728 13.216C8.744 13.104 8.76 13.04 8.776 13.024C8.792 13.008 9.088 13 9.664 13C10.384 13.016 11.096 13.008 11.8 12.976C12.344 12.928 12.736 12.912 12.976 12.928C13.12 12.928 13.248 12.912 13.36 12.88C13.472 12.832 13.576 12.824 13.672 12.856C13.784 12.872 13.872 12.832 13.936 12.736C14.016 12.64 14.032 12.568 13.984 12.52C13.952 12.472 13.928 12.248 13.912 11.848L13.888 11.248L13.696 11.224C13.568 11.224 13.48 11.248 13.432 11.296C13.4 11.344 13.224 11.376 12.904 11.392C12.248 11.44 11.856 11.504 11.728 11.584C11.664 11.616 11.448 11.624 11.08 11.608C10.712 11.608 10.504 11.624 10.456 11.656C10.408 11.672 10.344 11.624 10.264 11.512C10.184 11.4 10.144 11.328 10.144 11.296C10.16 11.248 10.208 11.192 10.288 11.128C10.496 10.984 10.68 10.96 10.84 11.056C10.92 11.104 11.048 11.112 11.224 11.08C11.4 11.048 11.584 11.04 11.776 11.056C11.952 11.072 12.064 11.064 12.112 11.032C12.16 11.016 12.272 10.992 12.448 10.96C12.576 10.928 12.648 10.904 12.664 10.888C12.696 10.872 12.72 10.824 12.736 10.744C12.784 10.488 12.808 10.36 12.808 10.36C12.856 10.104 12.832 9.84 12.736 9.568C12.688 9.44 12.616 9.416 12.52 9.496C12.456 9.56 12.232 9.592 11.848 9.592C11.48 9.608 11.264 9.632 11.2 9.664C11.104 9.712 11.024 9.864 10.96 10.12C10.944 10.248 10.896 10.312 10.816 10.312C10.608 10.344 10.504 10.312 10.504 10.216C10.504 10.184 10.472 10.144 10.408 10.096C10.376 10.08 10.352 10.016 10.336 9.904C10.336 9.792 10.336 9.456 10.336 8.896C10.352 8.112 10.384 7.696 10.432 7.648C10.48 7.616 10.504 7.536 10.504 7.408C10.52 7.28 10.496 7.208 10.432 7.192C10.384 7.16 10.36 7.048 10.36 6.856C10.36 6.664 10.392 6.52 10.456 6.424C10.488 6.328 10.496 6.192 10.48 6.016C10.48 5.936 10.472 5.808 10.456 5.632C10.456 5.536 10.424 5.456 10.36 5.392C10.296 5.328 10.232 5.312 10.168 5.344C10.088 5.36 9.992 5.384 9.88 5.416C9.784 5.432 9.72 5.456 9.688 5.488C9.672 5.504 9.656 5.552 9.64 5.632C9.624 5.76 9.592 5.84 9.544 5.872C9.496 5.904 9.472 5.976 9.472 6.088C9.472 6.2 9.496 6.288 9.544 6.352C9.608 6.416 9.64 6.568 9.64 6.808C9.64 7.032 9.624 7.16 9.592 7.192C9.56 7.208 9.544 7.504 9.544 8.08C9.56 8.64 9.552 8.936 9.52 8.968C9.488 8.968 9.472 9.104 9.472 9.376C9.472 9.92 9.424 10.224 9.328 10.288C9.28 10.304 9.248 10.376 9.232 10.504C9.216 10.616 9.176 10.696 9.112 10.744C9.064 10.776 9.032 10.824 9.016 10.888C8.984 10.968 8.92 11.056 8.824 11.152L8.68 11.32L8.536 11.224C8.472 11.16 8.432 11.104 8.416 11.056C8.4 11.008 8.392 10.888 8.392 10.696C8.392 10.568 8.376 10.448 8.344 10.336C8.296 10.208 8.272 10.104 8.272 10.024C8.272 9.96 8.248 9.92 8.2 9.904C8.152 9.872 8.128 9.816 8.128 9.736C8.128 9.64 8.152 9.568 8.2 9.52C8.248 9.456 8.288 9.456 8.32 9.52C8.384 9.696 8.44 9.736 8.488 9.64C8.552 9.544 8.528 9.472 8.416 9.424C8.336 9.392 8.312 9.352 8.344 9.304C8.36 9.24 8.368 9.032 8.368 8.68C8.368 8.344 8.392 8.152 8.44 8.104C8.504 8.024 8.488 7.936 8.392 7.84C8.328 7.776 8.304 7.736 8.32 7.72C8.352 7.688 8.424 7.664 8.536 7.648C8.68 7.616 8.752 7.584 8.752 7.552C8.752 7.52 8.696 7.496 8.584 7.48C8.504 7.464 8.456 7.448 8.44 7.432C8.424 7.416 8.408 7.368 8.392 7.288C8.376 7.176 8.376 7.048 8.392 6.904C8.408 6.76 8.4 6.648 8.368 6.568C8.288 6.312 8.344 6.144 8.536 6.064C8.664 6.016 8.696 5.968 8.632 5.92C8.6 5.904 8.584 5.864 8.584 5.8C8.584 5.672 8.328 5.616 7.816 5.632C7.608 5.632 7.464 5.624 7.384 5.608C7.288 5.576 7.208 5.6 7.144 5.68C7.08 5.744 7.04 5.848 7.024 5.992C7.008 6.152 7.032 6.256 7.096 6.304C7.224 6.384 7.232 6.472 7.12 6.568C7.072 6.6 7.048 6.704 7.048 6.88C7.048 7.056 7.072 7.152 7.12 7.168C7.168 7.184 7.2 7.232 7.216 7.312C7.232 7.376 7.32 7.416 7.48 7.432C7.784 7.464 7.96 7.52 8.008 7.6C8.04 7.664 8.024 7.712 7.96 7.744C7.896 7.808 7.744 7.848 7.504 7.864C7.36 7.88 7.264 7.92 7.216 7.984C7.168 8.048 7.12 8.08 7.072 8.08C7.04 8.08 7.016 8.096 7 8.128C6.968 8.16 6.968 8.264 7 8.44C7.048 8.616 7.088 8.72 7.12 8.752C7.168 8.8 7.192 8.92 7.192 9.112C7.192 9.272 7.2 9.408 7.216 9.52C7.232 9.6 7.288 9.64 7.384 9.64C7.672 9.64 7.816 9.68 7.816 9.76C7.816 9.792 7.776 9.832 7.696 9.88C7.616 9.912 7.528 9.928 7.432 9.928C7.336 9.928 7.248 9.992 7.168 10.12C7.056 10.328 7.04 10.448 7.12 10.48C7.168 10.496 7.192 10.72 7.192 11.152C7.192 11.472 7.184 11.664 7.168 11.728C7.168 11.776 7.136 11.824 7.072 11.872C6.88 12 6.92 12.072 7.192 12.088C7.288 12.088 7.4 12.088 7.528 12.088C7.72 12.072 7.84 12.04 7.888 11.992C7.936 11.928 8.08 11.896 8.32 11.896C8.56 11.896 8.728 11.864 8.824 11.8C8.92 11.72 9.008 11.672 9.088 11.656C9.184 11.624 9.264 11.592 9.328 11.56C9.472 11.448 9.584 11.448 9.664 11.56C9.696 11.608 9.736 11.632 9.784 11.632C9.848 11.632 9.92 11.688 10 11.8C10.096 11.896 10.144 11.984 10.144 12.064C10.144 12.192 10.104 12.28 10.024 12.328C9.944 12.36 9.792 12.352 9.568 12.304C9.44 12.272 9.248 12.256 8.992 12.256C8.736 12.256 8.592 12.264 8.56 12.28C8.512 12.328 8.376 12.376 8.152 12.424C7.928 12.472 7.744 12.496 7.6 12.496C7.408 12.496 7.296 12.52 7.264 12.568C7.232 12.6 7.216 12.96 7.216 13.648C7.232 14.32 7.216 14.728 7.168 14.872C7.088 15.032 7.048 15.16 7.048 15.256C7.032 15.4 6.968 15.56 6.856 15.736C6.808 15.816 6.784 15.92 6.784 16.048C6.784 16.176 6.76 16.264 6.712 16.312C6.6 16.408 6.488 16.648 6.376 17.032C6.328 17.176 6.256 17.272 6.16 17.32L6.016 17.392L5.776 17.128C5.6 16.952 5.496 16.8 5.464 16.672C5.432 16.544 5.456 16.4 5.536 16.24C5.6 16.128 5.632 16.024 5.632 15.928C5.632 15.56 5.68 15.32 5.776 15.208C5.808 15.16 5.84 15.016 5.872 14.776C5.888 14.52 5.896 14.152 5.896 13.672C5.896 13.176 5.888 12.864 5.872 12.736L5.848 12.52L5.44 12.544C5.2 12.56 5.064 12.584 5.032 12.616C4.936 12.728 4.664 12.784 4.216 12.784C3.272 12.784 2.728 12.824 2.584 12.904C2.52 12.952 2.288 12.976 1.888 12.976C1.456 12.976 1.2 12.976 1.12 12.976C1.056 12.96 1.024 12.936 1.024 12.904C1.024 12.856 0.984 12.808 0.904 12.76C0.776 12.68 0.784 12.56 0.928 12.4C1.04 12.272 1.216 12.256 1.456 12.352C1.6 12.4 2.264 12.384 3.448 12.304C3.832 12.272 4.048 12.224 4.096 12.16C4.128 12.112 4.176 12.088 4.24 12.088C4.304 12.072 4.52 12.072 4.888 12.088C5.224 12.104 5.432 12.12 5.512 12.136C5.592 12.136 5.656 12.168 5.704 12.232L5.8 12.352L5.896 12.232C5.944 12.168 6 12.16 6.064 12.208C6.128 12.24 6.208 12.256 6.304 12.256C6.416 12.24 6.472 12.216 6.472 12.184C6.472 12.136 6.392 12.112 6.232 12.112H5.992L5.944 11.872C5.896 11.696 5.88 11.512 5.896 11.32C5.928 11.128 5.928 10.864 5.896 10.528L5.872 10.048L5.656 10.072C5.448 10.088 5.184 10.104 4.864 10.12C4.592 10.136 4.432 10.152 4.384 10.168C4.336 10.184 4.296 10.224 4.264 10.288C4.248 10.336 4.224 10.4 4.192 10.48C4.16 10.528 4.128 10.64 4.096 10.816C4.08 10.976 4.04 11.088 3.976 11.152C3.912 11.216 3.88 11.272 3.88 11.32C3.88 11.368 3.84 11.432 3.76 11.512C3.696 11.592 3.64 11.632 3.592 11.632C3.528 11.632 3.472 11.6 3.424 11.536C3.392 11.472 3.36 11.44 3.328 11.44C3.28 11.44 3.248 11.408 3.232 11.344C3.216 11.28 3.176 11.224 3.112 11.176C3.048 11.112 3.024 10.96 3.04 10.72C3.056 10.496 3.072 10.36 3.088 10.312C3.152 10.232 3.184 9.384 3.184 7.768C3.184 6.552 3.168 5.92 3.136 5.872C3.088 5.84 3.064 5.776 3.064 5.68C3.064 5.584 3.048 5.488 3.016 5.392C2.92 5.168 2.92 4.992 3.016 4.864C3.08 4.784 3.152 4.768 3.232 4.816C3.296 4.864 3.384 4.912 3.496 4.96C3.56 4.992 3.608 5.048 3.64 5.128C3.672 5.192 3.712 5.224 3.76 5.224C3.808 5.224 3.848 5.248 3.88 5.296C3.912 5.36 3.976 5.4 4.072 5.416C4.168 5.432 4.248 5.48 4.312 5.56C4.36 5.624 4.416 5.664 4.48 5.68C4.56 5.68 4.76 5.68 5.08 5.68C5.288 5.664 5.44 5.624 5.536 5.56C5.632 5.496 5.744 5.448 5.872 5.416C5.952 5.4 6 5.384 6.016 5.368C6.032 5.352 6.032 5.32 6.016 5.272C5.952 5.048 5.96 4.88 6.04 4.768C6.104 4.688 6.12 4.536 6.088 4.312C6.056 3.88 6.104 3.648 6.232 3.616C6.36 3.584 6.376 3.552 6.28 3.52C6.248 3.504 6.192 3.488 6.112 3.472C6 3.472 5.92 3.496 5.872 3.544C5.856 3.576 5.656 3.616 5.272 3.664C4.888 3.712 4.52 3.744 4.168 3.76C3.88 3.776 3.288 3.824 2.392 3.904C2.04 3.936 1.864 3.888 1.864 3.76C1.864 3.728 1.824 3.696 1.744 3.664C1.68 3.632 1.64 3.56 1.624 3.448C1.608 3.336 1.608 3.264 1.624 3.232C1.64 3.2 1.784 3.2 2.056 3.232C2.328 3.248 2.48 3.272 2.512 3.304C2.544 3.336 2.616 3.352 2.728 3.352C2.856 3.336 2.944 3.312 2.992 3.28C3.056 3.232 3.432 3.2 4.12 3.184C4.808 3.168 5.168 3.144 5.2 3.112C5.248 3.08 5.368 3.056 5.56 3.04L5.872 2.992L5.896 2.8C5.928 2.672 5.96 2.592 5.992 2.56C6.04 2.544 6.072 2.368 6.088 2.032C6.104 1.68 6.096 1.408 6.064 1.216C6.032 1.008 5.992 0.88 5.944 0.831999C5.912 0.767999 5.896 0.671999 5.896 0.543999C5.912 0.399999 5.96 0.311999 6.04 0.279999C6.216 0.231999 6.376 0.279999 6.52 0.423999C6.584 0.487999 6.672 0.559999 6.784 0.639999C6.928 0.767999 7.008 0.831999 7.024 0.831999C7.152 0.944 7.312 1 7.504 1C7.6 1 7.656 1.056 7.672 1.168C7.704 1.344 7.624 1.52 7.432 1.696L7.24 1.888L7.216 2.32L7.168 2.752L7.624 2.776C7.912 2.792 8.072 2.824 8.104 2.872C8.136 2.92 8.216 2.944 8.344 2.944C8.472 2.944 8.536 2.912 8.536 2.848C8.552 2.8 8.616 2.768 8.728 2.752C8.84 2.736 8.928 2.688 8.992 2.608C9.04 2.544 9.176 2.504 9.4 2.488C9.592 2.488 9.72 2.504 9.784 2.536C9.864 2.568 9.888 2.632 9.856 2.728C9.84 2.824 9.768 2.928 9.64 3.04C9.528 3.168 9.464 3.264 9.448 3.328C9.368 3.472 9.152 3.504 8.8 3.424C8.368 3.344 8.056 3.384 7.864 3.544C7.816 3.576 7.664 3.6 7.408 3.616H7.048V3.832C7.048 3.96 7.072 4.04 7.12 4.072C7.216 4.136 7.216 4.256 7.12 4.432C7.072 4.512 7.04 4.648 7.024 4.84C7.008 5.016 7.032 5.136 7.096 5.2C7.144 5.248 7.184 5.304 7.216 5.368C7.232 5.416 7.416 5.432 7.768 5.416C8.104 5.4 8.288 5.376 8.32 5.344C8.368 5.28 8.472 5.216 8.632 5.152C8.68 5.136 8.704 5.112 8.704 5.08C8.704 5.064 8.776 5.032 8.92 4.984C9.032 4.952 9.112 4.912 9.16 4.864C9.224 4.8 9.28 4.768 9.328 4.768C9.36 4.768 9.416 4.784 9.496 4.816C9.576 4.848 9.616 4.88 9.616 4.912C9.616 4.944 9.688 4.976 9.832 5.008C9.976 5.024 10.08 5.024 10.144 5.008C10.208 4.976 10.248 4.936 10.264 4.888C10.296 4.824 10.32 4.696 10.336 4.504C10.336 4.424 10.344 4.376 10.36 4.36C10.392 4.344 10.448 4.336 10.528 4.336C10.64 4.32 10.728 4.344 10.792 4.408C10.856 4.456 10.92 4.496 10.984 4.528C11.064 4.544 11.2 4.656 11.392 4.864C11.568 5.04 11.712 5.152 11.824 5.2C11.936 5.248 12.072 5.256 12.232 5.224C12.312 5.208 12.376 5.2 12.424 5.2C12.472 5.2 12.504 5.216 12.52 5.248C12.552 5.264 12.56 5.296 12.544 5.344C12.528 5.376 12.424 5.392 12.232 5.392C11.912 5.392 11.68 5.456 11.536 5.584L11.392 5.704L11.416 6.424C11.416 7.496 11.376 8.12 11.296 8.296C11.232 8.408 11.208 8.568 11.224 8.776C11.224 8.872 11.28 8.96 11.392 9.04C11.504 9.12 11.744 9.176 12.112 9.208C12.416 9.24 12.6 9.248 12.664 9.232C12.744 9.2 12.792 9.112 12.808 8.968C12.84 8.856 12.872 8.784 12.904 8.752C12.952 8.72 12.976 8.576 12.976 8.32C12.976 8.048 12.944 7.856 12.88 7.744C12.784 7.584 12.792 7.448 12.904 7.336C12.984 7.272 13 7.12 12.952 6.88C12.936 6.704 12.944 6.44 12.976 6.088C13.024 5.544 12.992 5.272 12.88 5.272C12.832 5.272 12.792 5.256 12.76 5.224C12.728 5.176 12.712 5.136 12.712 5.104C12.712 5.056 12.752 5.016 12.832 4.984C12.992 4.92 13.008 4.832 12.88 4.72C12.8 4.672 12.768 4.56 12.784 4.384C12.784 4.224 12.808 4.12 12.856 4.072C12.904 4.008 12.912 3.912 12.88 3.784C12.784 3.432 12.712 3.256 12.664 3.256C12.632 3.256 12.568 3.28 12.472 3.328C12.392 3.36 12.128 3.4 11.68 3.448C11.232 3.48 10.984 3.512 10.936 3.544C10.888 3.592 10.824 3.616 10.744 3.616C10.664 3.6 10.6 3.56 10.552 3.496C10.44 3.352 10.464 3.248 10.624 3.184C10.72 3.136 10.776 3.096 10.792 3.064C10.808 3.048 11.048 3.048 11.512 3.064C11.992 3.064 12.288 3.072 12.4 3.088C12.464 3.104 12.536 3.08 12.616 3.016C12.68 2.952 12.712 2.824 12.712 2.632C12.696 2.456 12.704 2.352 12.736 2.32C12.768 2.304 12.784 2.232 12.784 2.104C12.784 1.976 12.816 1.864 12.88 1.768C12.912 1.72 12.936 1.672 12.952 1.624C12.968 1.56 12.976 1.512 12.976 1.48C12.976 1.432 12.96 1.408 12.928 1.408C12.896 1.408 12.872 1.336 12.856 1.192C12.84 1.064 12.808 0.904 12.76 0.711999C12.68 0.392 12.688 0.2 12.784 0.136ZM15.952 5.248C15.904 5.232 15.736 5.224 15.448 5.224C15.16 5.224 14.984 5.232 14.92 5.248C14.856 5.264 14.8 5.296 14.752 5.344C14.72 5.376 14.6 5.392 14.392 5.392C14.2 5.392 14.088 5.416 14.056 5.464C14.024 5.496 13.992 5.64 13.96 5.896C13.928 6.136 13.92 6.288 13.936 6.352C13.968 6.432 14.016 6.512 14.08 6.592C14.144 6.688 14.248 6.736 14.392 6.736C14.696 6.736 14.92 6.8 15.064 6.928C15.176 7.008 15.2 7.072 15.136 7.12C15.088 7.168 14.968 7.184 14.776 7.168C14.472 7.168 14.272 7.208 14.176 7.288C14.096 7.368 14.056 7.536 14.056 7.792C14.056 7.968 14.032 8.072 13.984 8.104C13.952 8.152 13.952 8.224 13.984 8.32C14.032 8.4 14.032 8.464 13.984 8.512C13.936 8.56 13.912 8.648 13.912 8.776L13.888 8.968H14.104C14.264 8.984 14.36 9.008 14.392 9.04C14.424 9.072 14.52 9.112 14.68 9.16C14.856 9.192 14.976 9.208 15.04 9.208C15.12 9.208 15.208 9.184 15.304 9.136C15.416 9.088 15.488 9.04 15.52 8.992C15.552 8.928 15.544 8.824 15.496 8.68C15.448 8.536 15.432 8.4 15.448 8.272C15.496 7.904 15.536 7.68 15.568 7.6C15.616 7.536 15.616 7.488 15.568 7.456C15.536 7.408 15.52 7.36 15.52 7.312C15.52 7.264 15.496 7.224 15.448 7.192C15.416 7.144 15.4 7.064 15.4 6.952C15.4 6.856 15.424 6.8 15.472 6.784C15.52 6.752 15.64 6.736 15.832 6.736C15.976 6.736 16.064 6.72 16.096 6.688C16.128 6.656 16.144 6.584 16.144 6.472C16.144 6.36 16.064 6.304 15.904 6.304C15.824 6.304 15.768 6.272 15.736 6.208C15.72 6.144 15.712 6.016 15.712 5.824C15.712 5.632 15.72 5.512 15.736 5.464C15.768 5.416 15.832 5.392 15.928 5.392C15.976 5.392 16 5.376 16 5.344C16.016 5.296 16 5.264 15.952 5.248ZM5.896 6.064C5.864 5.968 5.816 5.92 5.752 5.92C5.688 5.904 5.552 5.92 5.344 5.968C5.152 6.016 4.952 6.04 4.744 6.04C4.52 6.056 4.376 6.088 4.312 6.136C4.264 6.168 4.248 6.248 4.264 6.376C4.344 7.16 4.4 7.568 4.432 7.6C4.464 7.616 4.632 7.624 4.936 7.624C5.448 7.624 5.704 7.664 5.704 7.744C5.704 7.856 5.44 7.92 4.912 7.936C4.608 7.936 4.424 7.976 4.36 8.056C4.312 8.12 4.288 8.176 4.288 8.224C4.288 8.288 4.264 8.328 4.216 8.344C4.168 8.36 4.144 8.416 4.144 8.512C4.16 8.592 4.192 8.656 4.24 8.704C4.304 8.768 4.328 8.904 4.312 9.112C4.28 9.432 4.344 9.616 4.504 9.664C4.584 9.68 4.824 9.688 5.224 9.688C5.528 9.688 5.712 9.688 5.776 9.688C5.84 9.672 5.88 9.64 5.896 9.592C5.928 9.544 5.976 9.488 6.04 9.424C6.104 9.376 6.12 9.272 6.088 9.112C6.056 8.968 6.048 8.848 6.064 8.752C6.08 8.64 6.064 8.568 6.016 8.536C5.968 8.504 5.952 8.424 5.968 8.296C5.984 8.184 5.968 8.072 5.92 7.96C5.872 7.832 5.864 7.704 5.896 7.576C5.928 7.432 5.944 7.264 5.944 7.072C5.944 6.88 5.96 6.776 5.992 6.76C6.024 6.744 6.024 6.648 5.992 6.472C5.976 6.296 5.944 6.16 5.896 6.064ZM13.672 6.496C13.624 6.288 13.544 6.24 13.432 6.352C13.368 6.4 13.352 6.496 13.384 6.64C13.416 6.784 13.472 6.872 13.552 6.904C13.584 6.904 13.608 6.888 13.624 6.856C13.656 6.824 13.672 6.776 13.672 6.712C13.672 6.648 13.672 6.576 13.672 6.496ZM8.848 7C8.928 7 8.968 6.952 8.968 6.856C8.984 6.76 8.968 6.688 8.92 6.64C8.888 6.592 8.824 6.576 8.728 6.592C8.6 6.608 8.536 6.68 8.536 6.808C8.536 6.952 8.64 7.016 8.848 7ZM6.616 6.784C6.68 6.784 6.712 6.808 6.712 6.856C6.712 6.904 6.68 6.928 6.616 6.928C6.552 6.928 6.52 6.904 6.52 6.856C6.52 6.808 6.552 6.784 6.616 6.784ZM13.624 8.152C13.608 8.104 13.584 8.08 13.552 8.08C13.52 8.08 13.496 8.104 13.48 8.152C13.464 8.2 13.472 8.24 13.504 8.272C13.552 8.288 13.584 8.288 13.6 8.272C13.632 8.24 13.64 8.2 13.624 8.152ZM6.928 8.992C6.928 8.96 6.912 8.944 6.88 8.944C6.848 8.944 6.744 8.96 6.568 8.992C6.44 9.008 6.368 9.04 6.352 9.088C6.32 9.12 6.336 9.136 6.4 9.136C6.448 9.152 6.496 9.16 6.544 9.16C6.8 9.16 6.928 9.104 6.928 8.992ZM15.664 9.832L15.64 9.424H15.136C14.768 9.424 14.528 9.448 14.416 9.496C14.304 9.528 14.192 9.552 14.08 9.568L13.936 9.616L13.888 9.952C13.856 10.368 13.864 10.632 13.912 10.744C13.96 10.856 14.096 10.912 14.32 10.912C14.496 10.912 14.632 10.936 14.728 10.984C14.856 11.016 14.944 11.016 14.992 10.984C15.04 10.968 15.112 10.96 15.208 10.96C15.32 10.96 15.384 10.928 15.4 10.864C15.416 10.8 15.456 10.768 15.52 10.768C15.6 10.752 15.648 10.664 15.664 10.504C15.696 10.36 15.696 10.136 15.664 9.832ZM14.536 13.648C14.52 13.568 14.488 13.512 14.44 13.48C14.408 13.496 14.392 13.552 14.392 13.648C14.392 13.712 14.408 13.752 14.44 13.768C14.472 13.768 14.496 13.744 14.512 13.696C14.528 13.68 14.536 13.664 14.536 13.648ZM14.8 15.496C14.768 15.416 14.648 15.4 14.44 15.448C14.408 15.464 14.384 15.488 14.368 15.52C14.352 15.552 14.344 15.584 14.344 15.616C14.36 15.632 14.384 15.64 14.416 15.64C14.464 15.64 14.504 15.664 14.536 15.712C14.568 15.744 14.624 15.768 14.704 15.784C14.784 15.8 14.84 15.792 14.872 15.76C14.888 15.744 14.88 15.712 14.848 15.664C14.832 15.616 14.816 15.56 14.8 15.496ZM26.0273 1.024C26.2353 0.944 26.3873 0.927999 26.4833 0.975999C26.5153 0.992 26.5473 1.008 26.5793 1.024C26.6273 1.04 26.6513 1.048 26.6513 1.048C26.6993 1.08 26.7313 1.12 26.7473 1.168C26.7793 1.232 26.8193 1.304 26.8673 1.384C26.9313 1.464 26.9793 1.504 27.0113 1.504C27.0593 1.488 27.0993 1.504 27.1313 1.552C27.1633 1.6 27.2353 1.632 27.3473 1.648C27.4753 1.664 27.5553 1.72 27.5873 1.816C27.6193 1.912 27.6273 2.016 27.6113 2.128C27.5953 2.224 27.5553 2.28 27.4913 2.296C27.4273 2.312 27.3313 2.368 27.2033 2.464C27.0913 2.56 27.0353 2.624 27.0353 2.656C27.0353 2.688 27.0193 2.712 26.9873 2.728C26.9553 2.728 26.9393 2.744 26.9393 2.776C26.9393 2.792 26.9153 2.848 26.8673 2.944C26.8033 3.008 26.7713 3.112 26.7713 3.256C26.7233 3.64 26.6593 3.952 26.5793 4.192C26.5633 4.272 26.5233 4.344 26.4593 4.408C26.4113 4.456 26.4033 4.664 26.4353 5.032C26.4673 5.4 26.4993 5.608 26.5313 5.656C26.5793 5.688 26.8433 5.688 27.3233 5.656C27.8033 5.624 28.0833 5.6 28.1633 5.584C28.2273 5.552 28.2753 5.48 28.3073 5.368C28.3553 5.272 28.4033 5.208 28.4513 5.176C28.4993 5.128 28.5233 5.056 28.5233 4.96C28.5233 4.864 28.5633 4.76 28.6433 4.648C28.7393 4.52 28.8353 4.456 28.9313 4.456C29.0273 4.456 29.1873 4.568 29.4113 4.792C29.6193 5 29.7553 5.104 29.8193 5.104C29.9793 5.104 30.0433 5.2 30.0113 5.392C29.9793 5.488 29.9313 5.544 29.8673 5.56C29.8033 5.56 29.7153 5.632 29.6033 5.776C29.4913 5.92 29.4193 6.032 29.3873 6.112C29.3553 6.272 29.2753 6.376 29.1473 6.424C29.0673 6.44 29.0273 6.544 29.0273 6.736C29.0113 6.928 28.9793 7.056 28.9313 7.12C28.8993 7.2 28.8673 7.312 28.8353 7.456C28.7873 7.584 28.7393 7.656 28.6913 7.672C28.6113 7.704 28.5793 7.888 28.5953 8.224C28.5953 8.4 28.5713 8.504 28.5233 8.536C28.4753 8.552 28.4593 8.624 28.4753 8.752C28.4753 8.896 28.4433 9 28.3793 9.064C28.2993 9.144 28.2593 9.232 28.2593 9.328C28.2273 9.424 28.1793 9.512 28.1153 9.592C27.9713 9.768 27.8913 9.952 27.8753 10.144C27.8593 10.32 27.8273 10.432 27.7793 10.48C27.7473 10.528 27.7073 10.608 27.6593 10.72C27.5793 10.864 27.5393 10.952 27.5393 10.984C27.4913 11.064 27.4673 11.152 27.4673 11.248C27.4673 11.344 27.4513 11.416 27.4193 11.464C27.3713 11.512 27.3473 11.576 27.3473 11.656C27.3633 11.736 27.3953 11.784 27.4433 11.8C27.5233 11.832 27.6433 11.832 27.8033 11.8C27.9793 11.752 28.1153 11.752 28.2113 11.8C28.2913 11.864 28.3393 11.936 28.3553 12.016C28.3713 12.096 28.4113 12.168 28.4753 12.232C28.5713 12.344 28.6673 12.48 28.7633 12.64C28.7953 12.72 28.8833 12.832 29.0273 12.976C29.1873 13.12 29.2673 13.216 29.2673 13.264C29.2673 13.296 29.2833 13.328 29.3153 13.36C29.3313 13.376 29.3553 13.512 29.3873 13.768C29.4193 14.008 29.4113 14.144 29.3633 14.176C29.3153 14.192 29.2833 14.264 29.2673 14.392C29.2513 14.536 29.1153 14.8 28.8593 15.184C28.8593 15.184 28.8193 15.2 28.7393 15.232C28.5313 15.264 28.4273 15.232 28.4273 15.136C28.4273 15.104 28.4113 15.088 28.3793 15.088C28.3153 15.088 28.2353 15.032 28.1393 14.92C28.0433 14.792 27.9713 14.664 27.9233 14.536C27.8593 14.36 27.7953 14.248 27.7313 14.2C27.6513 14.152 27.6033 14.08 27.5873 13.984C27.5553 13.904 27.5233 13.84 27.4913 13.792C27.4433 13.744 27.3953 13.672 27.3473 13.576C27.2993 13.464 27.2513 13.392 27.2033 13.36C27.1553 13.312 27.1313 13.264 27.1313 13.216C27.1313 13.136 27.0993 13.04 27.0353 12.928C26.9713 12.816 26.9153 12.752 26.8673 12.736C26.8193 12.704 26.8353 12.632 26.9153 12.52C27.0113 12.392 27.0513 12.304 27.0353 12.256C27.0353 12.208 26.9793 12.184 26.8673 12.184H26.6753L26.6993 12.4C26.6993 12.512 26.6913 12.584 26.6753 12.616C26.6593 12.632 26.6113 12.656 26.5313 12.688C26.3393 12.768 26.2513 12.84 26.2673 12.904C26.2673 13.048 26.1473 13.248 25.9073 13.504C25.8273 13.584 25.7473 13.624 25.6673 13.624C25.5713 13.64 25.5073 13.664 25.4753 13.696C25.4433 13.728 25.4113 13.824 25.3793 13.984C25.3153 14.16 25.2513 14.264 25.1873 14.296C25.1233 14.328 25.0913 14.368 25.0913 14.416C25.0913 14.512 24.9953 14.56 24.8033 14.56C24.7393 14.576 24.6913 14.608 24.6593 14.656C24.6273 14.704 24.5233 14.776 24.3473 14.872C24.1873 14.968 24.0833 15.04 24.0353 15.088C23.8913 15.248 23.6993 15.36 23.4593 15.424C23.3473 15.44 23.2433 15.488 23.1473 15.568C23.0353 15.632 22.9553 15.672 22.9073 15.688C22.8753 15.688 22.8113 15.72 22.7153 15.784C22.6353 15.848 22.5393 15.88 22.4273 15.88C22.3153 15.88 22.2433 15.912 22.2113 15.976C22.1793 16.04 22.1073 16.08 21.9953 16.096C21.8833 16.128 21.7953 16.168 21.7313 16.216C21.6833 16.28 21.6113 16.312 21.5153 16.312C21.4353 16.312 21.3313 16.352 21.2033 16.432C20.8833 16.624 20.7233 16.592 20.7233 16.336C20.7233 16.256 20.7633 16.192 20.8433 16.144C20.9393 16.096 21.0033 16.064 21.0353 16.048C21.0833 16.048 21.1233 16.032 21.1553 16C21.1873 15.952 21.2593 15.92 21.3713 15.904C21.4833 15.872 21.5873 15.816 21.6833 15.736C21.7793 15.656 21.8513 15.616 21.8993 15.616C21.9633 15.616 22.0273 15.584 22.0913 15.52C22.1713 15.456 22.2353 15.424 22.2833 15.424C22.3313 15.424 22.3713 15.4 22.4033 15.352C22.4513 15.304 22.5633 15.232 22.7393 15.136C22.9313 15.024 23.0273 14.952 23.0273 14.92C23.0273 14.872 23.0833 14.832 23.1953 14.8C23.3233 14.752 23.3793 14.712 23.3633 14.68C23.3633 14.648 23.3953 14.616 23.4593 14.584C23.5073 14.568 23.5873 14.496 23.6993 14.368C23.8113 14.24 23.8993 14.16 23.9633 14.128C24.0113 14.112 24.0353 14.088 24.0353 14.056C24.0353 14.008 24.0833 13.944 24.1793 13.864C24.2753 13.768 24.3633 13.712 24.4433 13.696C24.5553 13.68 24.6193 13.632 24.6353 13.552C24.6353 13.472 24.7713 13.296 25.0433 13.024C25.2993 12.768 25.4273 12.608 25.4273 12.544C25.4273 12.48 25.4513 12.44 25.4993 12.424C25.5633 12.408 25.6353 12.352 25.7153 12.256C25.7953 12.16 25.8273 12.096 25.8113 12.064C25.8113 12.016 25.8513 11.944 25.9313 11.848C26.0273 11.736 26.0753 11.664 26.0753 11.632C26.0753 11.6 26.0993 11.584 26.1473 11.584C26.1793 11.584 26.2113 11.544 26.2433 11.464C26.2593 11.4 26.2833 11.344 26.3153 11.296C26.3633 11.264 26.3793 11.2 26.3633 11.104C26.3633 10.992 26.3393 10.92 26.2913 10.888C26.2593 10.856 26.2353 10.824 26.2193 10.792C26.2193 10.744 26.1793 10.712 26.0993 10.696C26.0353 10.68 25.9873 10.632 25.9553 10.552C25.9393 10.456 25.8993 10.384 25.8353 10.336C25.7713 10.272 25.7473 10.184 25.7633 10.072C25.7633 9.992 25.7713 9.944 25.7873 9.928C25.8033 9.896 25.8593 9.88 25.9553 9.88C26.0833 9.864 26.1953 9.888 26.2913 9.952C26.3713 10.032 26.4673 10.072 26.5793 10.072C26.6913 10.072 26.7633 10.04 26.7953 9.976C26.8273 9.928 26.8753 9.888 26.9393 9.856C26.9873 9.84 27.0113 9.72 27.0113 9.496C26.9953 9.272 27.0113 9.112 27.0593 9.016C27.1233 8.904 27.1713 8.768 27.2033 8.608C27.2353 8.432 27.2673 8.312 27.2993 8.248C27.3313 8.184 27.3553 8.088 27.3713 7.96C27.3873 7.816 27.4193 7.72 27.4673 7.672C27.5633 7.496 27.6033 7.192 27.5873 6.76C27.5713 6.584 27.5873 6.488 27.6353 6.472C27.7313 6.424 27.7073 6.336 27.5633 6.208C27.4033 6.064 27.2273 6.056 27.0353 6.184C26.9713 6.232 26.7953 6.28 26.5073 6.328C26.2353 6.36 26.0913 6.384 26.0753 6.4C26.0593 6.416 26.0513 6.576 26.0513 6.88C26.0673 7.168 26.0513 7.328 26.0033 7.36C25.9713 7.376 25.9313 7.44 25.8833 7.552C25.8513 7.664 25.8193 7.736 25.7873 7.768C25.7553 7.8 25.7233 7.88 25.6913 8.008C25.6753 8.136 25.6513 8.208 25.6193 8.224C25.5233 8.272 25.4753 8.448 25.4753 8.752C25.4753 8.896 25.4513 8.992 25.4033 9.04C25.3393 9.104 25.3073 9.184 25.3073 9.28C25.2753 9.376 25.2353 9.432 25.1873 9.448C25.1553 9.464 25.1233 9.512 25.0913 9.592C25.0753 9.672 25.0193 9.72 24.9233 9.736C24.8433 9.768 24.7953 9.824 24.7793 9.904C24.7473 10 24.6913 10.104 24.6113 10.216C24.5313 10.328 24.4913 10.416 24.4913 10.48C24.4913 10.544 24.4353 10.616 24.3233 10.696C24.2113 10.776 24.1553 10.832 24.1553 10.864C24.1553 10.896 24.1233 10.944 24.0593 11.008C24.0113 11.056 23.9713 11.136 23.9393 11.248C23.9073 11.344 23.8353 11.392 23.7233 11.392C23.6433 11.376 23.5953 11.36 23.5793 11.344C23.5633 11.328 23.5473 11.288 23.5313 11.224C23.4993 11.112 23.4433 11.008 23.3633 10.912C23.2833 10.816 23.2513 10.736 23.2673 10.672C23.2833 10.608 23.2913 10.544 23.2913 10.48C23.3073 10.432 23.3313 10.408 23.3633 10.408C23.3953 10.408 23.4513 10.36 23.5313 10.264C23.6273 10.168 23.6753 10.112 23.6753 10.096C23.6753 10.032 23.7153 9.92 23.7953 9.76C23.8913 9.6 23.9633 9.52 24.0113 9.52C24.0753 9.488 24.1073 9.448 24.1073 9.4C24.0913 9.144 24.1713 8.968 24.3473 8.872C24.5073 8.792 24.5553 8.648 24.4913 8.44C24.4753 8.376 24.5233 8.216 24.6353 7.96C24.7473 7.704 24.8033 7.552 24.8033 7.504C24.8033 7.456 24.7633 7.4 24.6833 7.336C24.6033 7.272 24.5313 7.24 24.4673 7.24C24.3873 7.24 24.3073 7.272 24.2273 7.336C24.1633 7.4 24.1153 7.432 24.0833 7.432C24.0513 7.432 23.9713 7.48 23.8433 7.576C23.7153 7.656 23.6353 7.72 23.6033 7.768C23.5713 7.8 23.4753 7.832 23.3153 7.864C23.1713 7.896 23.0513 7.952 22.9553 8.032C22.9393 8.048 22.8993 8.08 22.8353 8.128C22.7713 8.16 22.7233 8.184 22.6913 8.2C22.6113 8.264 22.5553 8.304 22.5233 8.32C22.4913 8.32 22.4113 8.352 22.2833 8.416C22.1713 8.48 22.0753 8.512 21.9953 8.512C21.9153 8.512 21.8193 8.472 21.7073 8.392C21.6113 8.312 21.5393 8.216 21.4913 8.104C21.4433 7.992 21.3953 7.936 21.3473 7.936C21.3153 7.936 21.2433 7.888 21.1313 7.792C21.0193 7.696 20.9633 7.632 20.9633 7.6C20.9473 7.52 21.1313 7.472 21.5153 7.456C21.7393 7.456 21.9953 7.416 22.2833 7.336C22.5713 7.256 22.7153 7.192 22.7153 7.144C22.6993 7.064 22.8913 7.024 23.2913 7.024C23.4193 7.008 23.5073 6.968 23.5553 6.904C23.6033 6.84 23.8193 6.8 24.2033 6.784C24.5073 6.768 24.6993 6.744 24.7793 6.712C24.8753 6.68 24.9793 6.584 25.0913 6.424C25.1713 6.328 25.2113 6.128 25.2113 5.824C25.2113 5.504 25.2273 5.336 25.2593 5.32C25.2913 5.304 25.3233 5.16 25.3553 4.888C25.3713 4.648 25.4033 4.44 25.4513 4.264C25.4993 4.088 25.5233 3.784 25.5233 3.352C25.5393 2.92 25.5713 2.672 25.6193 2.608C25.6513 2.56 25.6673 2.464 25.6673 2.32C25.6513 2.048 25.6993 1.904 25.8113 1.888C25.8593 1.888 25.8753 1.76 25.8593 1.504L25.8353 1.096L26.0273 1.024ZM34.6193 1.936C34.6993 1.856 34.7553 1.816 34.7873 1.816C34.9473 1.8 35.0593 1.88 35.1233 2.056C35.2353 2.344 35.3553 2.528 35.4833 2.608C35.5313 2.64 35.5553 2.688 35.5553 2.752C35.5553 2.8 35.5873 2.824 35.6513 2.824C35.7313 2.856 35.7953 2.92 35.8433 3.016C35.9073 3.112 35.9153 3.208 35.8673 3.304C35.8193 3.4 35.7713 3.456 35.7233 3.472C35.6753 3.488 35.6353 3.528 35.6033 3.592C35.5713 3.672 35.4753 3.752 35.3153 3.832C35.1553 3.928 35.0513 4 35.0033 4.048C34.9713 4.08 34.8913 4.112 34.7633 4.144C34.6353 4.176 34.5713 4.208 34.5713 4.24C34.5713 4.256 34.5073 4.288 34.3793 4.336C34.2673 4.4 34.2113 4.448 34.2113 4.48C34.2113 4.512 34.1313 4.608 33.9713 4.768C33.8113 4.912 33.7153 4.984 33.6833 4.984C33.6193 4.984 33.5473 5.032 33.4673 5.128C33.3713 5.208 33.2993 5.256 33.2513 5.272C33.2193 5.272 33.1873 5.296 33.1553 5.344C33.1393 5.392 33.0673 5.424 32.9393 5.44C32.8273 5.456 32.7553 5.448 32.7233 5.416C32.6913 5.304 32.7953 5.104 33.0353 4.816C33.1793 4.656 33.2593 4.52 33.2753 4.408C33.2913 4.28 33.3233 4.2 33.3713 4.168C33.4833 4.104 33.4833 4.008 33.3713 3.88L33.2753 3.76L31.9793 3.832C31.1153 3.88 30.5953 3.92 30.4193 3.952C29.8593 4.064 29.5713 4.088 29.5553 4.024C29.5393 3.96 29.5153 3.864 29.4833 3.736C29.4353 3.592 29.3953 3.512 29.3633 3.496C29.3313 3.496 29.3153 3.448 29.3153 3.352C29.3313 3.256 29.3553 3.184 29.3873 3.136C29.4353 3.088 29.7073 3.08 30.2033 3.112C30.6833 3.144 31.1713 3.16 31.6673 3.16C32.1473 3.16 32.4433 3.184 32.5553 3.232C32.6673 3.28 32.7953 3.288 32.9393 3.256C33.0833 3.208 33.2193 3.192 33.3473 3.208C33.4593 3.208 33.5713 3.192 33.6833 3.16C33.8113 3.112 33.8753 3.056 33.8753 2.992C33.8753 2.944 33.9073 2.912 33.9713 2.896C34.0353 2.88 34.0833 2.84 34.1153 2.776C34.1473 2.696 34.1713 2.656 34.1873 2.656C34.2033 2.656 34.2353 2.6 34.2833 2.488C34.3793 2.2 34.4513 2.056 34.4993 2.056C34.5153 2.056 34.5553 2.016 34.6193 1.936ZM31.7393 5.296C31.8353 5.2 32.0033 5.24 32.2433 5.416C32.3873 5.544 32.4993 5.616 32.5793 5.632C32.6753 5.648 32.7313 5.68 32.7473 5.728C32.7633 5.792 32.8033 5.832 32.8673 5.848C32.9153 5.864 33.0033 5.928 33.1313 6.04C33.2593 6.152 33.3233 6.272 33.3233 6.4C33.3393 6.752 33.4033 6.992 33.5153 7.12C33.5473 7.168 33.5793 7.264 33.6113 7.408C33.6593 7.552 33.6593 7.648 33.6113 7.696C33.5793 7.744 33.4753 7.776 33.2993 7.792C33.0433 7.824 33.0033 7.928 33.1793 8.104L33.2993 8.224L33.3953 8.104C33.4753 8.008 33.5313 7.96 33.5633 7.96C33.5953 7.96 33.6193 8.008 33.6353 8.104C33.6513 8.2 33.6433 8.296 33.6113 8.392C33.5793 8.52 33.5633 8.672 33.5633 8.848C33.5473 8.976 33.5473 9.056 33.5633 9.088C33.5793 9.104 33.6193 9.136 33.6833 9.184C33.7473 9.216 33.7873 9.288 33.8033 9.4C33.8353 9.496 33.8993 9.88 33.9953 10.552C34.0273 10.712 34.0593 10.8 34.0913 10.816C34.1393 10.832 34.1633 10.912 34.1633 11.056C34.1633 11.184 34.1393 11.288 34.0913 11.368C34.0433 11.464 34.0273 11.712 34.0433 12.112C34.0593 13.072 34.0273 13.6 33.9473 13.696C33.8833 13.792 33.8513 13.904 33.8513 14.032C33.8673 14.144 33.8433 14.216 33.7793 14.248C33.7153 14.264 33.6833 14.32 33.6833 14.416C33.6993 14.608 33.6513 14.744 33.5393 14.824C33.5073 14.84 33.4913 14.88 33.4913 14.944C33.4913 15.008 33.4673 15.048 33.4193 15.064C33.3233 15.112 33.2753 15.296 33.2753 15.616C33.2913 15.872 33.1633 16.048 32.8913 16.144C32.7633 16.192 32.6913 16.232 32.6753 16.264C32.6753 16.312 32.6513 16.336 32.6033 16.336C32.5553 16.336 32.5073 16.368 32.4593 16.432C32.3313 16.576 32.1713 16.64 31.9793 16.624C31.9153 16.624 31.8753 16.608 31.8593 16.576C31.8433 16.544 31.8273 16.464 31.8113 16.336C31.7793 16.144 31.7393 16.032 31.6913 16C31.6433 15.952 31.6033 15.88 31.5713 15.784C31.5393 15.672 31.5393 15.592 31.5713 15.544C31.6033 15.48 31.6033 15.44 31.5713 15.424C31.5393 15.392 31.4753 15.368 31.3793 15.352C31.2673 15.336 31.1553 15.28 31.0433 15.184C30.9473 15.104 30.8913 15.056 30.8753 15.04C30.8753 15.024 30.8993 14.992 30.9473 14.944C30.9953 14.88 31.0993 14.848 31.2593 14.848C31.3873 14.832 31.4993 14.808 31.5953 14.776C31.6593 14.744 31.7713 14.752 31.9313 14.8C32.0273 14.832 32.0913 14.848 32.1233 14.848C32.1553 14.832 32.1953 14.792 32.2433 14.728C32.3393 14.632 32.3473 14.552 32.2673 14.488C32.2193 14.456 32.1953 14.32 32.1953 14.08C32.2113 13.824 32.2433 13.68 32.2913 13.648C32.3873 13.568 32.4033 13.44 32.3393 13.264C32.2433 13.072 32.2193 12.8 32.2673 12.448C32.2993 12.32 32.2913 12.208 32.2433 12.112C32.1153 11.904 32.1233 11.672 32.2673 11.416C32.3473 11.288 32.3713 11.184 32.3393 11.104C32.3073 11.024 32.2753 10.664 32.2433 10.024C32.2113 9.32 32.1393 8.904 32.0273 8.776C31.9793 8.712 31.9073 8.712 31.8113 8.776C31.6993 8.824 31.4593 8.856 31.0913 8.872C30.7073 8.888 30.4673 8.92 30.3713 8.968C30.1313 9.064 29.8753 9.104 29.6033 9.088C29.4433 9.072 29.3073 9 29.1953 8.872C29.0993 8.744 29.0513 8.664 29.0513 8.632C29.0513 8.6 29.0353 8.552 29.0033 8.488C28.9553 8.44 28.9553 8.392 29.0033 8.344C29.0673 8.28 29.2513 8.256 29.5553 8.272C29.8753 8.288 30.0913 8.312 30.2033 8.344C30.3153 8.376 30.4433 8.368 30.5873 8.32C30.9233 8.176 31.2193 8.168 31.4753 8.296C31.6193 8.36 31.7153 8.368 31.7633 8.32C31.8113 8.256 31.8833 8.208 31.9793 8.176C32.1073 8.144 32.1873 8.024 32.2193 7.816C32.2193 7.704 32.1953 7.616 32.1473 7.552C32.0673 7.472 31.9953 7.232 31.9313 6.832C31.8993 6.528 31.8673 6.36 31.8353 6.328C31.8033 6.312 31.7713 6.144 31.7393 5.824C31.7073 5.488 31.7073 5.312 31.7393 5.296ZM32.4353 7.744C32.4833 7.744 32.5073 7.72 32.5073 7.672C32.5073 7.624 32.4833 7.6 32.4353 7.6C32.3873 7.6 32.3633 7.624 32.3633 7.672C32.3633 7.72 32.3873 7.744 32.4353 7.744ZM33.1793 10.12C33.2113 10.12 33.2273 10.104 33.2273 10.072C33.2273 10.04 33.2193 10.024 33.2033 10.024C33.1873 10.024 33.1713 10.04 33.1553 10.072C33.1393 10.104 33.1473 10.12 33.1793 10.12ZM33.5153 13.96C33.5633 13.944 33.5873 13.92 33.5873 13.888C33.5873 13.84 33.5633 13.816 33.5153 13.816C33.4673 13.8 33.4273 13.808 33.3953 13.84C33.3313 13.92 33.3713 13.96 33.5153 13.96ZM33.1793 14.272C33.1313 14.24 33.0673 14.224 32.9873 14.224C32.9233 14.208 32.8753 14.216 32.8433 14.248C32.7953 14.28 32.7793 14.32 32.7953 14.368C32.8113 14.416 32.8513 14.448 32.9153 14.464C32.9633 14.464 33.0113 14.456 33.0593 14.44C33.1073 14.408 33.1393 14.384 33.1553 14.368C33.1873 14.336 33.1953 14.304 33.1793 14.272ZM36.9233 7.288C37.0033 7.208 37.0833 7.168 37.1633 7.168C37.2433 7.168 37.3473 7.208 37.4753 7.288C37.6033 7.368 37.6673 7.44 37.6673 7.504C37.6673 7.536 37.6833 7.552 37.7153 7.552C37.7473 7.552 37.7793 7.584 37.8113 7.648C37.8433 7.728 37.8913 7.776 37.9553 7.792C38.0193 7.792 38.0593 7.888 38.0753 8.08C38.0913 8.256 38.0673 8.384 38.0033 8.464C37.9233 8.56 37.7553 8.624 37.4993 8.656C37.2593 8.672 37.0833 8.64 36.9713 8.56C36.9393 8.528 36.6673 8.52 36.1553 8.536C35.6433 8.552 35.2753 8.576 35.0513 8.608C34.8273 8.64 34.6193 8.632 34.4273 8.584C34.2833 8.552 34.1873 8.52 34.1393 8.488C34.0913 8.456 34.0673 8.392 34.0673 8.296C34.0673 8.2 34.0993 8.136 34.1633 8.104C34.2273 8.056 34.3553 8.04 34.5473 8.056C34.7713 8.072 34.8833 8.056 34.8833 8.008C34.8993 7.96 35.0273 7.92 35.2673 7.888C35.5073 7.856 35.6593 7.816 35.7233 7.768C35.8033 7.736 35.8753 7.736 35.9393 7.768C36.0833 7.88 36.2193 7.864 36.3473 7.72C36.4113 7.64 36.4593 7.6 36.4913 7.6C36.5233 7.6 36.5473 7.568 36.5633 7.504C36.5793 7.44 36.6193 7.408 36.6833 7.408C36.7633 7.408 36.8433 7.368 36.9233 7.288ZM46.5186 0.303999C46.5826 0.239999 46.7106 0.223999 46.9026 0.256C47.1106 0.287999 47.2146 0.343999 47.2146 0.423999C47.2146 0.471999 47.2386 0.503999 47.2866 0.519999C47.3506 0.535999 47.3826 0.591999 47.3826 0.688C47.3826 0.783999 47.3506 0.871999 47.2866 0.951999C47.2386 1.016 47.2226 1.104 47.2386 1.216C47.2386 1.312 47.2866 1.384 47.3826 1.432C47.4786 1.464 47.5666 1.456 47.6466 1.408C47.8066 1.312 48.4306 1.256 49.5186 1.24C51.5026 1.192 52.6226 1.12 52.8786 1.024C53.0226 0.975999 53.1586 0.895999 53.2866 0.784C53.3986 0.656 53.5106 0.567999 53.6226 0.519999C53.7346 0.487999 53.8146 0.44 53.8626 0.375999C53.9106 0.311999 53.9906 0.271999 54.1026 0.256C54.2306 0.24 54.3506 0.28 54.4626 0.375999C54.5906 0.487999 54.6706 0.543999 54.7026 0.543999C54.7506 0.543999 54.7746 0.575999 54.7746 0.639999C54.7746 0.687999 54.8146 0.719999 54.8946 0.735999C54.9906 0.768 55.0546 0.824 55.0866 0.904C55.1186 0.968 55.1586 1 55.2066 1C55.2546 1 55.2786 1.032 55.2786 1.096C55.2786 1.144 55.3186 1.176 55.3986 1.192C55.4626 1.24 55.5266 1.36 55.5906 1.552C55.6546 1.68 55.6866 1.76 55.6866 1.792C55.6866 1.824 55.6626 1.864 55.6146 1.912C55.5666 1.96 55.5026 1.984 55.4226 1.984C55.3746 1.984 55.3266 2.016 55.2786 2.08C55.2466 2.144 55.1266 2.176 54.9186 2.176C54.7266 2.176 54.5906 2.216 54.5106 2.296C54.4306 2.376 54.3106 2.456 54.1506 2.536C53.9746 2.616 53.8546 2.688 53.7906 2.752C53.5986 2.944 53.4066 3.072 53.2146 3.136C53.1506 3.168 53.1106 3.2 53.0946 3.232C53.0946 3.264 53.1026 3.352 53.1186 3.496C53.1346 3.704 53.1266 3.816 53.0946 3.832C53.0626 3.848 52.8466 3.856 52.4466 3.856C52.0146 3.872 51.6786 3.896 51.4386 3.928C51.1826 3.944 50.9746 3.936 50.8146 3.904C50.6706 3.872 50.5426 3.904 50.4306 4C50.2866 4.144 50.2626 4.312 50.3586 4.504C50.4386 4.632 50.4386 4.736 50.3586 4.816C50.3106 4.864 50.2786 5.008 50.2626 5.248C50.2466 5.472 50.2626 5.656 50.3106 5.8C50.3746 5.976 50.4306 6.096 50.4786 6.16C50.5266 6.208 50.5506 6.304 50.5506 6.448C50.5506 6.592 50.5266 6.68 50.4786 6.712C50.3026 6.856 50.2706 7.04 50.3826 7.264C50.4466 7.376 50.4946 7.504 50.5266 7.648C50.5426 7.76 50.5666 7.832 50.5986 7.864C50.6466 7.88 50.7666 7.896 50.9586 7.912C51.1506 7.944 51.2466 7.976 51.2466 8.008C51.2466 8.056 51.1186 8.088 50.8626 8.104L50.5266 8.128V8.824V9.544L50.7186 9.592C50.8466 9.64 50.9506 9.648 51.0306 9.616C51.1106 9.584 51.1986 9.592 51.2946 9.64C51.3746 9.704 51.4946 9.736 51.6546 9.736C51.8146 9.736 51.9266 9.744 51.9906 9.76C52.0866 9.792 52.1506 9.72 52.1826 9.544C52.2146 9.4 52.2306 9.16 52.2306 8.824C52.2306 8.376 52.2226 8.136 52.2066 8.104C52.1906 8.088 52.2066 7.928 52.2546 7.624C52.3026 7.352 52.3426 7.048 52.3746 6.712C52.3906 6.408 52.3666 6.256 52.3026 6.256C52.2546 6.256 52.1986 6.232 52.1346 6.184C52.0866 6.12 52.0466 6.112 52.0146 6.16C51.9666 6.192 51.7426 6.208 51.3426 6.208C50.9586 6.192 50.7666 6.152 50.7666 6.088C50.7506 6.024 50.7506 5.952 50.7666 5.872C50.7986 5.792 50.8306 5.752 50.8626 5.752C50.9106 5.752 50.9586 5.728 51.0066 5.68C51.0546 5.632 51.1266 5.608 51.2226 5.608C51.3506 5.608 51.5026 5.584 51.6786 5.536C51.8546 5.472 51.9586 5.416 51.9906 5.368C52.0226 5.32 52.1186 5.296 52.2786 5.296C52.4386 5.296 52.5426 5.272 52.5906 5.224C52.8786 4.968 53.1266 4.824 53.3346 4.792C53.4626 4.776 53.5826 4.84 53.6946 4.984C53.8066 5.128 53.8626 5.24 53.8626 5.32C53.8626 5.4 53.9026 5.456 53.9826 5.488C54.0626 5.52 54.1346 5.592 54.1986 5.704L54.2706 5.872L54.0546 6.064C53.9266 6.192 53.8706 6.32 53.8866 6.448C53.9826 7.088 53.9426 7.504 53.7666 7.696C53.7186 7.76 53.7106 7.832 53.7426 7.912C53.7586 7.992 53.7506 8.072 53.7186 8.152C53.6866 8.248 53.6946 8.336 53.7426 8.416C53.7906 8.496 53.8146 8.728 53.8146 9.112C53.8146 9.512 53.7986 9.72 53.7666 9.736C53.7346 9.736 53.7186 9.76 53.7186 9.808C53.7186 9.84 53.6866 9.92 53.6226 10.048C53.5586 10.16 53.5346 10.24 53.5506 10.288C53.5666 10.32 53.5426 10.376 53.4786 10.456C53.4306 10.536 53.3986 10.64 53.3826 10.768C53.3666 10.88 53.3186 10.952 53.2386 10.984C53.1746 11 53.1426 11.04 53.1426 11.104C53.1426 11.2 53.1186 11.264 53.0706 11.296C53.0226 11.312 52.9186 11.304 52.7586 11.272C52.5666 11.224 52.4626 11.176 52.4466 11.128C52.4306 11.08 52.3826 11.04 52.3026 11.008C52.2386 10.976 52.1986 10.944 52.1826 10.912C52.1826 10.864 52.1826 10.736 52.1826 10.528C52.1826 10.24 52.1426 10.08 52.0626 10.048C51.9826 10.016 51.7026 10.008 51.2226 10.024C50.7586 10.024 50.5186 10.04 50.5026 10.072C50.4706 10.088 50.4626 10.176 50.4786 10.336C50.5266 10.528 50.5426 10.784 50.5266 11.104C50.5106 11.424 50.4786 11.608 50.4306 11.656C50.2706 11.832 50.3506 11.936 50.6706 11.968C50.7506 11.968 50.8386 11.968 50.9346 11.968C51.0466 11.968 51.1346 11.992 51.1986 12.04C51.2466 12.088 51.3266 12.128 51.4386 12.16C51.5186 12.176 51.8066 12.168 52.3026 12.136C52.8146 12.088 53.0946 12.048 53.1426 12.016C53.2066 11.984 53.2626 11.968 53.3106 11.968C53.3746 11.968 53.4546 11.92 53.5506 11.824C53.6626 11.728 53.7426 11.68 53.7906 11.68C53.8226 11.68 53.8546 11.656 53.8866 11.608C53.9026 11.56 54.0706 11.512 54.3906 11.464C54.7106 11.416 54.9266 11.408 55.0386 11.44C55.2466 11.488 55.3826 11.608 55.4466 11.8C55.5266 11.992 55.5026 12.152 55.3746 12.28C55.3106 12.328 55.2146 12.36 55.0866 12.376C54.9746 12.392 54.6466 12.408 54.1026 12.424C53.3346 12.44 52.8866 12.464 52.7586 12.496C52.6146 12.512 52.5186 12.504 52.4706 12.472C52.4066 12.44 52.1906 12.424 51.8226 12.424C51.4706 12.424 51.2226 12.44 51.0786 12.472C50.8386 12.536 50.7106 12.568 50.6946 12.568C50.6146 12.584 50.5666 12.608 50.5506 12.64C50.5506 12.672 50.5506 12.784 50.5506 12.976C50.5506 13.232 50.5746 13.424 50.6226 13.552C50.6706 13.664 50.6946 13.816 50.6946 14.008C50.6946 14.2 50.6706 14.344 50.6226 14.44C50.5106 14.648 50.5186 14.816 50.6466 14.944C50.7106 15.008 50.8546 15.04 51.0786 15.04C51.3026 15.04 51.4306 15.072 51.4626 15.136C51.5586 15.296 51.7506 15.304 52.0386 15.16C52.1506 15.096 52.5106 15.064 53.1186 15.064C54.3186 15.048 55.0306 14.984 55.2546 14.872C55.3666 14.824 55.6226 14.792 56.0226 14.776C56.4226 14.744 56.6546 14.704 56.7186 14.656C56.8146 14.56 57.0546 14.504 57.4386 14.488C57.8226 14.472 58.0466 14.504 58.1106 14.584C58.1586 14.68 58.1186 14.752 57.9906 14.8C57.8946 14.832 57.8466 14.864 57.8466 14.896C57.8466 14.912 57.7666 14.96 57.6066 15.04C57.4626 15.12 57.3906 15.176 57.3906 15.208C57.3906 15.224 57.3266 15.24 57.1986 15.256C57.0866 15.288 57.0146 15.336 56.9826 15.4C56.9346 15.464 56.8866 15.496 56.8386 15.496C56.7906 15.496 56.7506 15.536 56.7186 15.616C56.7026 15.68 56.6306 15.736 56.5026 15.784C56.3906 15.816 56.3106 15.888 56.2626 16C56.2146 16.096 56.1746 16.152 56.1426 16.168C56.0786 16.184 55.9986 16.248 55.9026 16.36C55.8226 16.472 55.7666 16.568 55.7346 16.648C55.6706 16.872 55.4786 16.952 55.1586 16.888C54.9826 16.856 54.8386 16.864 54.7266 16.912C54.6146 16.96 54.5346 17.008 54.4866 17.056C54.4386 17.12 54.4066 17.128 54.3906 17.08C54.3266 16.952 54.1666 16.904 53.9106 16.936C53.4626 16.984 52.8786 16.968 52.1586 16.888C51.9506 16.856 51.6706 16.832 51.3186 16.816C50.9986 16.816 50.8306 16.8 50.8146 16.768C50.7986 16.736 50.7426 16.72 50.6466 16.72C50.5666 16.72 50.5186 16.688 50.5026 16.624C50.4866 16.56 50.4306 16.512 50.3346 16.48C49.8866 16.32 49.3906 16.224 48.8466 16.192C48.5586 16.16 48.4066 16.136 48.3906 16.12C48.3746 16.072 48.2786 16 48.1026 15.904C47.9266 15.808 47.8146 15.76 47.7666 15.76C47.6066 15.76 47.5266 15.704 47.5266 15.592C47.5266 15.528 47.5426 15.488 47.5746 15.472C47.6226 15.456 47.6386 15.424 47.6226 15.376C47.6226 15.328 47.5986 15.304 47.5506 15.304C47.5186 15.304 47.4866 15.328 47.4546 15.376C47.4226 15.472 47.3346 15.48 47.1906 15.4C47.1266 15.368 46.9986 15.344 46.8066 15.328C46.6146 15.296 46.4786 15.248 46.3986 15.184C46.2546 15.056 46.1186 15.056 45.9906 15.184C45.9266 15.232 45.8626 15.24 45.7986 15.208C45.7506 15.16 45.6546 15.104 45.5106 15.04C45.3666 14.976 45.2946 14.928 45.2946 14.896C45.2946 14.848 45.2626 14.824 45.1986 14.824C45.1506 14.824 45.1026 14.776 45.0546 14.68C45.0066 14.584 44.9586 14.528 44.9106 14.512C44.8466 14.48 44.8146 14.448 44.8146 14.416C44.8146 14.368 44.7106 14.296 44.5026 14.2C44.2946 14.088 44.1586 14.008 44.0946 13.96C43.9826 13.832 43.8226 13.8 43.6146 13.864C43.5186 13.896 43.4546 13.976 43.4226 14.104C43.3746 14.232 43.3266 14.304 43.2786 14.32C43.2466 14.32 43.2066 14.344 43.1586 14.392C43.1426 14.424 43.0226 14.512 42.7986 14.656C42.6226 14.784 42.4946 14.88 42.4146 14.944C42.2866 15.072 42.0786 15.136 41.7906 15.136C41.6786 15.136 41.5826 15.176 41.5026 15.256C41.4386 15.336 41.4226 15.416 41.4546 15.496C41.4866 15.56 41.4946 15.656 41.4786 15.784C41.4626 15.896 41.4306 15.976 41.3826 16.024C41.3346 16.056 41.3106 16.088 41.3106 16.12C41.3106 16.152 41.2546 16.216 41.1426 16.312C41.0306 16.424 40.8706 16.472 40.6626 16.456C40.4706 16.44 40.3426 16.392 40.2786 16.312C40.2306 16.248 40.1906 16.216 40.1586 16.216C40.1266 16.216 40.0866 16.192 40.0386 16.144C39.9106 16.032 39.7026 15.856 39.4146 15.616C39.2546 15.488 39.1666 15.384 39.1506 15.304C39.1506 15.208 39.2386 15.104 39.4146 14.992C39.5746 14.864 39.7506 14.792 39.9426 14.776C40.1346 14.76 40.2626 14.728 40.3266 14.68C40.3906 14.616 40.5346 14.568 40.7586 14.536C40.9986 14.488 41.1506 14.44 41.2146 14.392C41.2626 14.344 41.3026 14.32 41.3346 14.32C41.3826 14.32 41.4786 14.288 41.6226 14.224C41.7666 14.16 41.9106 14.112 42.0546 14.08C42.1986 14.032 42.2706 13.992 42.2706 13.96C42.2706 13.928 42.3186 13.896 42.4146 13.864C42.5106 13.832 42.6066 13.752 42.7026 13.624C42.7986 13.512 42.8226 13.424 42.7746 13.36C42.6946 13.28 42.6546 13.152 42.6546 12.976C42.6706 12.8 42.7186 12.672 42.7986 12.592C42.8466 12.544 42.8786 12.464 42.8946 12.352C42.9106 12.24 42.9266 11.912 42.9426 11.368C42.9586 10.632 42.9826 10.224 43.0146 10.144C43.0626 10.064 43.0866 9.952 43.0866 9.808C43.0866 9.792 43.0866 9.72 43.0866 9.592C43.0866 9.464 43.0866 9.328 43.0866 9.184C43.0866 9.04 43.0866 8.904 43.0866 8.776C43.0866 8.248 43.0866 7.976 43.0866 7.96C43.0706 7.944 42.8466 7.936 42.4146 7.936C41.9986 7.936 41.6946 7.944 41.5026 7.96C41.1986 7.976 40.9426 8.048 40.7346 8.176L40.4226 8.368L40.3026 8.248C40.2386 8.184 40.1826 8.152 40.1346 8.152C40.0706 8.152 40.0386 8.024 40.0386 7.768C40.0386 7.72 40.1026 7.664 40.2306 7.6C40.3746 7.52 40.5426 7.504 40.7346 7.552C40.9266 7.616 41.0626 7.632 41.1426 7.6C41.2226 7.584 41.3906 7.568 41.6466 7.552C42.3986 7.536 42.8066 7.504 42.8706 7.456C42.9186 7.44 42.9426 7.4 42.9426 7.336C42.9426 7.272 42.9826 7.224 43.0626 7.192C43.1426 7.16 43.2226 7.104 43.3026 7.024C43.3986 6.928 43.4466 6.856 43.4466 6.808C43.4466 6.744 43.4706 6.712 43.5186 6.712C43.5666 6.712 43.5906 6.696 43.5906 6.664C43.5906 6.568 43.6706 6.504 43.8306 6.472C43.9906 6.44 44.0786 6.472 44.0946 6.568C44.1106 6.616 44.2066 6.712 44.3826 6.856C44.5426 6.984 44.6226 7.104 44.6226 7.216C44.6226 7.328 44.5826 7.432 44.5026 7.528C44.4066 7.624 44.3586 7.704 44.3586 7.768C44.3586 7.816 44.3266 7.864 44.2626 7.912C44.1826 7.976 44.1426 8.184 44.1426 8.536C44.1426 8.872 44.1186 9.088 44.0706 9.184C44.0226 9.296 43.9906 9.496 43.9746 9.784C43.9746 10.072 43.9586 10.296 43.9266 10.456C43.9106 10.6 43.9266 10.696 43.9746 10.744C44.0226 10.792 44.0466 10.872 44.0466 10.984C44.0466 11.08 44.0226 11.16 43.9746 11.224C43.8786 11.368 43.8786 11.56 43.9746 11.8C44.0386 11.912 44.0706 12.112 44.0706 12.4C44.0866 12.688 44.0706 12.864 44.0226 12.928C43.9746 12.976 43.9666 13.032 43.9986 13.096C44.0146 13.112 44.0546 13.208 44.1186 13.384C44.1986 13.544 44.3746 13.616 44.6466 13.6C44.7746 13.6 44.9026 13.632 45.0306 13.696C45.1746 13.776 45.3106 13.816 45.4386 13.816C45.5506 13.816 45.6786 13.848 45.8226 13.912C45.9506 13.976 46.0786 14.024 46.2066 14.056C46.3506 14.072 46.4466 14.112 46.4946 14.176C46.6226 14.288 46.9346 14.384 47.4306 14.464C47.5426 14.48 47.6546 14.536 47.7666 14.632C47.8466 14.728 47.9426 14.776 48.0546 14.776C48.1506 14.776 48.3106 14.8 48.5346 14.848C48.7746 14.88 48.9426 14.88 49.0386 14.848C49.1026 14.816 49.1346 14.784 49.1346 14.752C49.1506 14.72 49.1506 14.648 49.1346 14.536C49.1186 14.344 49.1026 14.008 49.0866 13.528C49.0866 13.048 49.0626 12.784 49.0146 12.736C48.9506 12.656 48.6066 12.632 47.9826 12.664C47.3746 12.68 47.0306 12.72 46.9506 12.784C46.9186 12.816 46.6546 12.848 46.1586 12.88C45.7426 12.896 45.4866 12.888 45.3906 12.856C45.3106 12.824 45.2866 12.736 45.3186 12.592C45.3346 12.528 45.3586 12.488 45.3906 12.472C45.4386 12.456 45.5666 12.432 45.7746 12.4C46.0786 12.384 46.5266 12.368 47.1186 12.352C47.7426 12.352 48.1346 12.336 48.2946 12.304C48.4866 12.288 48.5986 12.296 48.6306 12.328C48.6466 12.36 48.7186 12.376 48.8466 12.376C48.9906 12.376 49.0706 12.336 49.0866 12.256C49.1026 12.176 49.1186 11.76 49.1346 11.008C49.1346 10.256 49.1586 9.856 49.2066 9.808C49.2866 9.728 49.2866 9.656 49.2066 9.592C49.1586 9.56 49.1346 9.16 49.1346 8.392C49.1186 7.624 49.1346 7.216 49.1826 7.168C49.2466 7.136 49.2786 6.976 49.2786 6.688C49.2786 6.4 49.2466 6.248 49.1826 6.232C49.1346 6.216 49.1106 6.144 49.1106 6.016C49.1106 5.888 49.1266 5.808 49.1586 5.776C49.2066 5.728 49.2066 5.656 49.1586 5.56C49.1266 5.464 49.1026 5.208 49.0866 4.792C49.0706 4.36 49.0546 4.136 49.0386 4.12C49.0066 4.104 48.6466 4.096 47.9586 4.096C47.2546 4.096 46.8786 4.08 46.8306 4.048C46.7346 3.984 46.7506 3.888 46.8786 3.76C46.9586 3.696 47.1906 3.656 47.5746 3.64C47.9906 3.64 48.2386 3.656 48.3186 3.688C48.5586 3.752 48.7506 3.712 48.8946 3.568C48.9426 3.52 48.9666 3.448 48.9666 3.352C48.9666 3.256 48.9826 3.192 49.0146 3.16C49.0466 3.128 49.0626 2.928 49.0626 2.56L49.0386 2.008L48.8946 1.96C48.7986 1.928 48.7106 1.896 48.6306 1.864C48.4706 1.8 48.0226 1.816 47.2866 1.912C46.9666 1.96 46.7826 2.096 46.7346 2.32C46.7026 2.416 46.6786 2.48 46.6626 2.512C46.6306 2.544 46.5906 2.688 46.5426 2.944C46.4946 3.136 46.4306 3.296 46.3506 3.424C46.2706 3.552 46.1906 3.616 46.1106 3.616C46.0786 3.616 46.0386 3.64 45.9906 3.688C45.9426 3.752 45.7746 3.848 45.4866 3.976C45.3586 4.04 45.2786 4.088 45.2466 4.12C45.2306 4.152 45.1586 4.168 45.0306 4.168C44.9186 4.168 44.8146 4.104 44.7186 3.976C44.5426 3.736 44.5266 3.552 44.6706 3.424C44.7346 3.344 44.7906 3.248 44.8386 3.136C44.9026 3.008 44.9506 2.944 44.9826 2.944C45.0466 2.944 45.1106 2.904 45.1746 2.824C45.2386 2.744 45.2866 2.656 45.3186 2.56C45.3346 2.48 45.3666 2.44 45.4146 2.44C45.4626 2.44 45.4946 2.408 45.5106 2.344C45.6066 2.104 45.6706 1.984 45.7026 1.984C45.7186 1.984 45.7426 1.904 45.7746 1.744C45.7906 1.6 45.8306 1.512 45.8946 1.48C45.9586 1.464 45.9906 1.4 45.9906 1.288C45.9906 1.176 46.0706 1.008 46.2306 0.784C46.3906 0.56 46.4706 0.432 46.4706 0.399999C46.4706 0.368 46.4866 0.335999 46.5186 0.303999ZM53.2146 1.648C53.0866 1.488 52.9346 1.464 52.7586 1.576C52.5666 1.704 52.2946 1.728 51.9426 1.648C51.7346 1.584 51.5746 1.568 51.4626 1.6C51.3186 1.648 51.1426 1.68 50.9346 1.696L50.5746 1.744L50.5506 2.344C50.5346 2.76 50.4946 3.032 50.4306 3.16C50.3826 3.304 50.3826 3.376 50.4306 3.376C50.4786 3.408 50.5026 3.448 50.5026 3.496C50.5026 3.528 50.5506 3.544 50.6466 3.544C50.7586 3.544 50.8626 3.52 50.9586 3.472C51.0706 3.424 51.2466 3.392 51.4866 3.376C51.7426 3.36 51.8946 3.32 51.9426 3.256C51.9906 3.192 52.0786 3.152 52.2066 3.136C52.3186 3.104 52.3906 3.064 52.4226 3.016C52.4386 2.968 52.5186 2.936 52.6626 2.92C52.9666 2.872 53.1346 2.656 53.1666 2.272C53.1986 2.064 53.2386 1.952 53.2866 1.936C53.3826 1.904 53.3586 1.808 53.2146 1.648ZM53.7666 16.36C53.7986 16.36 53.8146 16.344 53.8146 16.312C53.8146 16.28 53.7986 16.264 53.7666 16.264C53.7346 16.264 53.7186 16.28 53.7186 16.312C53.7186 16.344 53.7346 16.36 53.7666 16.36ZM42.0066 0.688C42.0866 0.591999 42.2306 0.583999 42.4386 0.663999C42.5666 0.711999 42.6786 0.735999 42.7746 0.735999C42.8706 0.735999 42.9826 0.783999 43.1106 0.879999C43.2386 0.96 43.3186 1 43.3506 1C43.3826 1 43.3986 1.016 43.3986 1.048C43.3986 1.096 43.4546 1.176 43.5666 1.288C43.6786 1.4 43.7746 1.472 43.8546 1.504C43.9506 1.536 44.0306 1.6 44.0946 1.696C44.1426 1.776 44.1426 1.864 44.0946 1.96C44.0626 2.056 43.9986 2.128 43.9026 2.176C43.8066 2.208 43.6306 2.232 43.3746 2.248C43.1186 2.28 42.9746 2.32 42.9426 2.368C42.8946 2.416 42.8546 2.44 42.8226 2.44C42.7746 2.44 42.7026 2.384 42.6066 2.272C42.5266 2.16 42.4786 2.064 42.4626 1.984C42.4146 1.76 42.2866 1.544 42.0786 1.336C41.9986 1.256 41.9506 1.144 41.9346 1C41.9346 0.856 41.9586 0.752 42.0066 0.688ZM41.8866 3.376C41.9826 3.36 42.0946 3.368 42.2226 3.4C42.3506 3.416 42.4306 3.44 42.4626 3.472C42.4946 3.52 42.5346 3.544 42.5826 3.544C42.6306 3.544 42.7586 3.6 42.9666 3.712C43.1746 3.808 43.3026 3.856 43.3506 3.856C43.4146 3.856 43.4866 3.92 43.5666 4.048C43.6626 4.176 43.7106 4.288 43.7106 4.384C43.7106 4.464 43.7346 4.528 43.7826 4.576C43.8306 4.624 43.8546 4.736 43.8546 4.912C43.8546 5.072 43.7826 5.224 43.6386 5.368C43.4946 5.512 43.4066 5.616 43.3746 5.68C43.3266 5.744 43.1266 5.776 42.7746 5.776C42.4386 5.776 42.2546 5.76 42.2226 5.728C42.1746 5.68 42.1346 5.568 42.1026 5.392C42.0866 5.2 42.0946 5.032 42.1266 4.888C42.1586 4.712 42.1506 4.592 42.1026 4.528C42.0386 4.464 41.9586 4.336 41.8626 4.144C41.7666 3.936 41.7186 3.8 41.7186 3.736C41.7186 3.528 41.7746 3.408 41.8866 3.376ZM46.5186 5.248C46.5506 5.136 46.6306 5.08 46.7586 5.08C46.9026 5.08 47.0466 5.16 47.1906 5.32C47.3506 5.48 47.4306 5.584 47.4306 5.632C47.4306 5.68 47.4786 5.72 47.5746 5.752C47.6866 5.784 47.7426 5.816 47.7426 5.848C47.7426 5.88 47.7986 5.904 47.9106 5.92C48.2306 5.984 48.3906 6.056 48.3906 6.136C48.3906 6.184 48.3186 6.216 48.1746 6.232C47.9826 6.248 47.8306 6.256 47.7186 6.256C47.5746 6.256 47.4786 6.304 47.4306 6.4C47.3666 6.576 47.3586 6.864 47.4066 7.264C47.4386 7.552 47.4786 7.72 47.5266 7.768C47.5746 7.816 47.7346 7.856 48.0066 7.888C48.4226 7.952 48.6226 8.008 48.6066 8.056C48.5906 8.072 48.3986 8.096 48.0306 8.128C47.7106 8.16 47.4946 8.2 47.3826 8.248C47.2706 8.296 47.2146 8.368 47.2146 8.464C47.2146 8.56 47.2466 8.664 47.3106 8.776C47.3586 8.888 47.3746 8.984 47.3586 9.064C47.3106 9.304 47.3426 9.504 47.4546 9.664C47.5186 9.728 47.7506 9.768 48.1506 9.784C48.5986 9.8 48.8226 9.84 48.8226 9.904C48.8386 9.936 48.8306 9.96 48.7986 9.976C48.7506 10.024 48.5186 10.048 48.1026 10.048H47.5026L47.3826 10.216C47.2866 10.312 47.2306 10.456 47.2146 10.648C47.1826 10.84 47.1506 10.944 47.1186 10.96C47.0866 10.96 47.0466 11.008 46.9986 11.104C46.8866 11.296 46.7906 11.32 46.7106 11.176C46.6786 11.096 46.6066 11.008 46.4946 10.912C46.3986 10.8 46.3426 10.744 46.3266 10.744C46.2786 10.744 46.2386 10.696 46.2066 10.6C46.1746 10.488 46.1746 10.28 46.2066 9.976C46.2386 9.656 46.2866 9.456 46.3506 9.376C46.3986 9.296 46.4386 8.872 46.4706 8.104C46.5026 7.16 46.5026 6.456 46.4706 5.992C46.4546 5.592 46.4706 5.344 46.5186 5.248ZM48.6306 6.04C48.6786 5.928 48.7506 5.92 48.8466 6.016C48.8946 6.064 48.9106 6.112 48.8946 6.16C48.8786 6.192 48.8306 6.208 48.7506 6.208C48.6706 6.208 48.6226 6.2 48.6066 6.184C48.5906 6.152 48.5986 6.104 48.6306 6.04Z" fill="black"/>
</svg>
